<?xml version="1.0" encoding="UTF-8"?>
<svg xmlns="http://www.w3.org/2000/svg" xmlns:xlink="http://www.w3.org/1999/xlink" width="13px" height="24px" viewBox="0 0 13 24" version="1.1">
<g id="surface1">
<path style=" stroke:none;fill-rule:nonzero;fill:rgb(0%,0%,0%);fill-opacity:1;" d="M 9.820312 0.148438 C 9.84375 0.242188 9.832031 0.253906 9.710938 0.253906 L 9.578125 0.253906 L 9.578125 2.394531 L 9.316406 2.394531 L 9.316406 3.109375 L 9.046875 3.109375 L 9.074219 3.464844 L 9.109375 3.824219 L 8.839844 3.824219 L 8.839844 4.539062 L 8.578125 4.539062 L 8.578125 5.253906 L 8.453125 5.253906 C 8.34375 5.253906 8.328125 5.265625 8.332031 5.359375 L 8.339844 5.464844 L 7.117188 5.460938 L 5.894531 5.460938 L 5.894531 5.585938 C 5.894531 5.699219 5.910156 5.714844 6.023438 5.714844 C 6.136719 5.714844 6.152344 5.730469 6.152344 5.839844 L 6.152344 5.964844 L 7.632812 5.964844 L 7.617188 6.082031 C 7.605469 6.183594 7.617188 6.195312 7.722656 6.183594 L 7.84375 6.171875 L 7.84375 6.882812 L 7.722656 6.898438 L 7.605469 6.910156 L 7.621094 7.257812 L 7.632812 7.605469 L 7.5 7.605469 C 7.378906 7.605469 7.367188 7.617188 7.367188 7.730469 C 7.367188 7.84375 7.351562 7.855469 7.238281 7.855469 C 7.121094 7.855469 7.105469 7.871094 7.105469 7.984375 C 7.105469 8.097656 7.097656 8.105469 7 8.085938 L 6.894531 8.058594 L 6.882812 8.546875 L 6.867188 9.035156 L 7.105469 9.035156 L 7.105469 9.746094 L 7.367188 9.746094 L 7.367188 10.460938 L 7.238281 10.460938 C 7.121094 10.460938 7.105469 10.476562 7.105469 10.589844 C 7.105469 10.707031 7.09375 10.71875 6.992188 10.707031 L 6.878906 10.691406 L 6.894531 11.636719 L 6.761719 11.636719 C 6.644531 11.636719 6.628906 11.652344 6.628906 11.765625 L 6.628906 11.890625 L 6.261719 11.890625 C 5.898438 11.890625 5.894531 11.886719 5.894531 11.785156 C 5.894531 11.699219 5.914062 11.679688 6.023438 11.679688 L 6.152344 11.679688 L 6.152344 10.925781 L 5.917969 10.925781 C 5.695312 10.925781 5.679688 10.917969 5.667969 10.808594 C 5.65625 10.710938 5.636719 10.695312 5.535156 10.703125 C 5.433594 10.707031 5.417969 10.691406 5.417969 10.585938 C 5.417969 10.476562 5.402344 10.460938 5.285156 10.460938 L 5.15625 10.460938 L 5.15625 11.175781 L 5.285156 11.175781 C 5.398438 11.175781 5.417969 11.191406 5.417969 11.28125 C 5.417969 11.371094 5.398438 11.386719 5.285156 11.386719 C 5.171875 11.386719 5.15625 11.402344 5.15625 11.511719 C 5.15625 11.625 5.140625 11.636719 5.027344 11.636719 C 4.910156 11.636719 4.898438 11.652344 4.898438 11.765625 C 4.898438 11.871094 4.878906 11.890625 4.789062 11.890625 C 4.703125 11.890625 4.679688 11.910156 4.679688 11.996094 C 4.679688 12.085938 4.660156 12.101562 4.550781 12.101562 C 4.421875 12.101562 4.421875 12.101562 4.421875 12.351562 C 4.421875 12.605469 4.421875 12.605469 4.289062 12.605469 L 4.160156 12.605469 L 4.160156 14.496094 L 4.289062 14.496094 C 4.421875 14.496094 4.421875 14.496094 4.421875 14.746094 L 4.421875 15 L 4.898438 15 L 4.898438 15.230469 C 4.898438 15.460938 4.898438 15.460938 5.027344 15.460938 L 5.15625 15.460938 L 5.15625 16.132812 L 5.027344 16.132812 C 4.910156 16.132812 4.898438 16.148438 4.898438 16.261719 C 4.898438 16.367188 4.878906 16.386719 4.789062 16.386719 C 4.699219 16.386719 4.679688 16.40625 4.679688 16.515625 C 4.679688 16.628906 4.667969 16.644531 4.5625 16.628906 C 4.449219 16.617188 4.441406 16.605469 4.441406 16.386719 C 4.441406 16.164062 4.4375 16.15625 4.324219 16.144531 L 4.203125 16.128906 L 4.203125 15.421875 L 3.941406 15.421875 L 3.941406 12.613281 L 3.824219 12.597656 C 3.722656 12.585938 3.707031 12.566406 3.71875 12.46875 C 3.730469 12.367188 3.71875 12.351562 3.597656 12.351562 C 3.480469 12.351562 3.464844 12.339844 3.464844 12.226562 C 3.464844 12.117188 3.453125 12.101562 3.335938 12.101562 C 3.21875 12.101562 3.207031 12.113281 3.207031 12.246094 C 3.207031 12.375 3.21875 12.394531 3.316406 12.394531 C 3.402344 12.394531 3.421875 12.414062 3.421875 12.511719 C 3.421875 12.574219 3.4375 12.667969 3.453125 12.71875 C 3.476562 12.8125 3.464844 12.816406 3.210938 12.816406 L 2.945312 12.816406 L 2.945312 12.941406 C 2.945312 13.054688 2.933594 13.066406 2.8125 13.066406 L 2.675781 13.066406 L 2.695312 13.296875 C 2.714844 13.53125 2.714844 13.53125 2.59375 13.53125 L 2.46875 13.53125 L 2.46875 14.746094 L 2.589844 14.746094 C 2.703125 14.746094 2.707031 14.757812 2.710938 14.980469 C 2.710938 15.203125 2.710938 15.210938 2.589844 15.210938 L 2.46875 15.210938 L 2.46875 15.566406 C 2.46875 15.921875 2.472656 15.925781 2.578125 15.925781 C 2.667969 15.925781 2.6875 15.941406 2.6875 16.050781 C 2.6875 16.160156 2.703125 16.175781 2.816406 16.175781 C 2.933594 16.175781 2.945312 16.1875 2.945312 16.308594 C 2.945312 16.429688 2.957031 16.4375 3.078125 16.414062 L 3.207031 16.386719 L 3.207031 17.351562 L 3.335938 17.351562 C 3.445312 17.351562 3.460938 17.367188 3.453125 17.46875 C 3.445312 17.566406 3.464844 17.585938 3.5625 17.597656 L 3.683594 17.613281 L 3.683594 18.53125 L 3.574219 18.53125 C 3.484375 18.53125 3.464844 18.511719 3.464844 18.402344 C 3.464844 18.277344 3.464844 18.277344 3.207031 18.277344 C 2.945312 18.277344 2.945312 18.277344 2.945312 18.402344 C 2.945312 18.515625 2.929688 18.53125 2.824219 18.53125 C 2.710938 18.53125 2.703125 18.539062 2.722656 18.65625 C 2.738281 18.773438 2.730469 18.78125 2.605469 18.78125 C 2.484375 18.78125 2.46875 18.769531 2.46875 18.65625 L 2.46875 18.53125 L 1.472656 18.53125 L 1.472656 18.65625 C 1.472656 18.769531 1.460938 18.785156 1.355469 18.773438 C 1.246094 18.761719 1.234375 18.773438 1.234375 18.886719 L 1.234375 19.011719 L 2.210938 19.011719 L 2.210938 19.253906 C 2.210938 19.492188 2.210938 19.496094 2.339844 19.496094 C 2.625 19.496094 2.511719 19.699219 2.222656 19.714844 C 1.976562 19.726562 1.972656 19.730469 1.984375 19.84375 C 1.996094 19.945312 1.988281 19.957031 1.867188 19.957031 C 1.75 19.957031 1.734375 19.972656 1.734375 20.078125 C 1.734375 20.199219 1.730469 20.199219 1.488281 20.191406 L 1.242188 20.1875 L 1.253906 20.429688 L 1.261719 20.671875 L 1.128906 20.671875 C 1.011719 20.671875 0.996094 20.6875 0.996094 20.792969 C 0.996094 20.898438 0.984375 20.90625 0.867188 20.890625 C 0.746094 20.875 0.738281 20.882812 0.738281 21.003906 C 0.738281 21.117188 0.722656 21.132812 0.628906 21.132812 C 0.539062 21.132812 0.519531 21.152344 0.519531 21.261719 L 0.519531 21.386719 L 0.257812 21.386719 C -0.00390625 21.386719 -0.0078125 21.386719 0.0078125 21.503906 L 0.0234375 21.617188 L 0.507812 21.628906 C 0.996094 21.640625 0.996094 21.640625 0.996094 21.746094 C 0.996094 21.847656 1.003906 21.847656 1.363281 21.847656 L 1.734375 21.847656 L 1.734375 22.5625 L 1.601562 22.5625 C 1.488281 22.5625 1.472656 22.578125 1.472656 22.6875 L 1.472656 22.816406 L 1.734375 22.816406 C 1.996094 22.816406 2 22.816406 1.984375 22.929688 C 1.972656 23.03125 1.988281 23.046875 2.089844 23.042969 C 2.191406 23.042969 2.210938 23.058594 2.210938 23.160156 L 2.210938 23.277344 L 2.945312 23.277344 L 2.945312 23.53125 L 4.679688 23.53125 L 4.679688 23.65625 C 4.679688 23.78125 4.683594 23.78125 4.917969 23.78125 C 5.15625 23.78125 5.15625 23.78125 5.15625 23.65625 L 5.15625 23.53125 L 5.894531 23.53125 L 5.894531 23.792969 L 7.105469 23.746094 L 7.105469 23.871094 C 7.105469 23.984375 7.117188 23.992188 7.28125 23.992188 C 7.460938 23.992188 7.488281 23.9375 7.386719 23.78125 C 7.316406 23.671875 7.046875 23.5 6.96875 23.519531 C 6.90625 23.53125 6.890625 23.496094 6.882812 23.289062 C 6.871094 23.089844 6.855469 23.046875 6.792969 23.050781 C 6.75 23.054688 6.589844 23.058594 6.433594 23.0625 L 6.152344 23.066406 L 6.152344 23.230469 C 6.152344 23.449219 6.128906 23.457031 5.929688 23.320312 C 5.71875 23.171875 5.464844 23.171875 5.148438 23.320312 C 4.949219 23.414062 4.9375 23.414062 4.738281 23.351562 L 4.527344 23.285156 L 4.84375 23.28125 L 5.15625 23.277344 L 5.15625 23.152344 C 5.15625 23.039062 5.171875 23.023438 5.285156 23.023438 C 5.402344 23.023438 5.417969 23.011719 5.417969 22.90625 C 5.417969 22.800781 5.429688 22.789062 5.523438 22.804688 C 5.621094 22.824219 5.632812 22.8125 5.632812 22.691406 C 5.632812 22.5625 5.632812 22.5625 5.394531 22.5625 L 5.15625 22.5625 L 5.15625 22.332031 C 5.15625 22.113281 5.148438 22.101562 5.046875 22.101562 C 4.957031 22.101562 4.941406 22.121094 4.941406 22.230469 C 4.941406 22.351562 4.929688 22.363281 4.808594 22.34375 C 4.691406 22.328125 4.679688 22.335938 4.679688 22.441406 C 4.679688 22.546875 4.695312 22.5625 4.808594 22.5625 L 4.941406 22.5625 L 4.941406 23.078125 L 4.710938 23.050781 C 4.585938 23.039062 4.363281 23.023438 4.214844 23.023438 C 3.953125 23.023438 3.941406 23.019531 3.941406 22.917969 C 3.941406 22.816406 3.933594 22.8125 3.695312 22.824219 C 3.460938 22.835938 3.445312 22.84375 3.445312 22.941406 C 3.445312 23.042969 3.457031 23.046875 3.695312 23.03125 L 3.941406 23.015625 L 3.941406 23.265625 L 3.5625 23.207031 C 3.3125 23.167969 3.128906 23.113281 3.023438 23.042969 C 2.933594 22.988281 2.824219 22.941406 2.78125 22.941406 C 2.457031 22.941406 2.109375 22.625 2.152344 22.375 C 2.167969 22.273438 2.164062 22.261719 2.128906 22.3125 C 2.089844 22.359375 2.082031 22.328125 2.085938 22.183594 C 2.09375 21.929688 2.078125 21.898438 1.917969 21.746094 C 1.710938 21.550781 1.679688 21.535156 1.515625 21.519531 C 1.285156 21.496094 1.082031 21.402344 1.085938 21.316406 C 1.085938 21.222656 1.191406 21.085938 1.226562 21.121094 C 1.242188 21.136719 1.257812 21.128906 1.257812 21.105469 C 1.257812 21.082031 1.304688 21.007812 1.363281 20.941406 C 1.421875 20.875 1.472656 20.796875 1.472656 20.765625 C 1.472656 20.738281 1.492188 20.714844 1.515625 20.714844 C 1.539062 20.714844 1.558594 20.6875 1.558594 20.65625 C 1.558594 20.625 1.597656 20.550781 1.644531 20.496094 L 1.730469 20.398438 L 1.730469 20.894531 L 1.734375 21.386719 L 1.992188 21.386719 L 1.992188 21.03125 C 1.992188 20.675781 1.996094 20.671875 2.101562 20.671875 C 2.183594 20.671875 2.210938 20.648438 2.210938 20.589844 C 2.210938 20.542969 2.214844 20.488281 2.222656 20.472656 C 2.226562 20.457031 2.125 20.429688 1.992188 20.421875 L 1.753906 20.398438 L 2.03125 20.238281 C 2.1875 20.152344 2.332031 20.074219 2.355469 20.070312 C 2.410156 20.0625 2.535156 19.941406 2.617188 19.824219 C 2.664062 19.757812 2.722656 19.726562 2.804688 19.730469 C 2.984375 19.738281 3.023438 20.421875 2.84375 20.421875 C 2.753906 20.421875 2.730469 20.445312 2.707031 20.5625 C 2.671875 20.738281 2.53125 20.871094 2.363281 20.886719 C 2.207031 20.90625 2.132812 21.132812 2.285156 21.132812 C 2.445312 21.136719 2.488281 21.207031 2.480469 21.425781 L 2.46875 21.636719 L 2.707031 21.636719 C 2.933594 21.636719 2.945312 21.644531 2.945312 21.742188 C 2.945312 21.832031 2.964844 21.847656 3.078125 21.847656 L 3.207031 21.847656 L 3.207031 22.5625 L 3.078125 22.5625 C 2.960938 22.5625 2.945312 22.578125 2.945312 22.6875 C 2.945312 22.800781 2.960938 22.816406 3.078125 22.816406 C 3.191406 22.816406 3.207031 22.800781 3.207031 22.6875 L 3.207031 22.5625 L 4.421875 22.5625 L 4.421875 22.425781 C 4.421875 22.210938 4.523438 22.101562 4.726562 22.101562 C 4.832031 22.101562 4.898438 22.082031 4.902344 22.046875 C 4.902344 22.019531 4.90625 21.910156 4.910156 21.808594 C 4.917969 21.628906 4.925781 21.617188 5.039062 21.621094 C 5.140625 21.621094 5.15625 21.601562 5.15625 21.507812 C 5.15625 21.394531 5.164062 21.390625 5.40625 21.378906 C 5.636719 21.367188 5.652344 21.359375 5.652344 21.261719 C 5.652344 21.148438 4.75 21.066406 4.683594 21.175781 C 4.652344 21.21875 4.390625 21.171875 4.410156 21.121094 C 4.453125 21.007812 4.410156 20.925781 4.3125 20.925781 C 4.195312 20.925781 4.148438 21.109375 4.257812 21.148438 C 4.289062 21.15625 4.296875 21.179688 4.273438 21.203125 C 4.25 21.226562 4.226562 21.21875 4.214844 21.1875 C 4.171875 21.066406 3.941406 21.125 3.941406 21.261719 C 3.941406 21.371094 3.929688 21.386719 3.8125 21.386719 C 3.683594 21.386719 3.683594 21.382812 3.683594 21.15625 C 3.683594 20.9375 3.675781 20.925781 3.574219 20.925781 C 3.484375 20.925781 3.464844 20.902344 3.464844 20.808594 C 3.464844 20.714844 3.4375 20.679688 3.335938 20.644531 C 3.210938 20.597656 3.207031 20.585938 3.207031 20.339844 L 3.207031 20.078125 L 3.300781 20.164062 C 3.351562 20.210938 3.460938 20.261719 3.539062 20.277344 L 3.683594 20.300781 L 3.683594 20.59375 C 3.683594 20.816406 3.699219 20.882812 3.742188 20.882812 C 3.777344 20.882812 3.835938 20.894531 3.875 20.90625 C 3.933594 20.929688 3.941406 20.894531 3.941406 20.675781 L 3.941406 20.421875 L 4.074219 20.421875 C 4.175781 20.421875 4.203125 20.402344 4.203125 20.335938 C 4.203125 20.273438 4.226562 20.25 4.277344 20.261719 C 4.390625 20.28125 4.40625 20.421875 4.292969 20.421875 C 4.222656 20.421875 4.203125 20.449219 4.203125 20.546875 C 4.203125 20.65625 4.21875 20.671875 4.328125 20.671875 C 4.433594 20.671875 4.449219 20.683594 4.429688 20.777344 C 4.410156 20.878906 4.417969 20.882812 4.632812 20.882812 C 4.914062 20.882812 4.917969 20.878906 4.902344 20.765625 C 4.890625 20.6875 4.910156 20.671875 5.019531 20.671875 C 5.128906 20.671875 5.152344 20.691406 5.164062 20.78125 L 5.179688 20.886719 L 5.902344 20.886719 C 6.304688 20.882812 6.796875 20.882812 7 20.882812 L 7.367188 20.882812 L 7.367188 20.65625 C 7.367188 20.53125 7.347656 20.421875 7.324219 20.414062 C 7.296875 20.402344 7.296875 20.375 7.324219 20.335938 C 7.359375 20.28125 7.363281 20.285156 7.367188 20.347656 C 7.367188 20.40625 7.40625 20.421875 7.605469 20.421875 L 7.84375 20.421875 L 7.84375 20.191406 C 7.84375 20.066406 7.824219 19.957031 7.804688 19.953125 C 7.785156 19.941406 7.785156 19.898438 7.800781 19.851562 C 7.835938 19.773438 7.835938 19.773438 7.839844 19.863281 C 7.84375 20.03125 8.101562 19.996094 8.101562 19.832031 C 8.101562 19.71875 8.117188 19.707031 8.234375 19.707031 C 8.347656 19.707031 8.363281 19.71875 8.363281 19.832031 C 8.363281 19.9375 8.378906 19.957031 8.46875 19.957031 C 8.550781 19.957031 8.578125 19.984375 8.589844 20.074219 C 8.597656 20.164062 8.628906 20.191406 8.722656 20.203125 C 8.785156 20.210938 8.839844 20.226562 8.839844 20.238281 C 8.839844 20.3125 8.734375 20.421875 8.664062 20.421875 C 8.597656 20.421875 8.578125 20.449219 8.578125 20.546875 C 8.578125 20.652344 8.5625 20.671875 8.472656 20.671875 C 8.371094 20.671875 8.363281 20.660156 8.363281 20.441406 C 8.363281 20.210938 8.359375 20.210938 8.234375 20.210938 C 8.117188 20.210938 8.101562 20.222656 8.101562 20.339844 C 8.101562 20.457031 8.09375 20.46875 7.996094 20.445312 C 7.90625 20.425781 7.890625 20.4375 7.878906 20.535156 C 7.867188 20.625 7.839844 20.652344 7.746094 20.664062 C 7.644531 20.675781 7.625 20.699219 7.625 20.800781 C 7.625 20.910156 7.613281 20.925781 7.496094 20.925781 C 7.386719 20.925781 7.367188 20.941406 7.367188 21.03125 C 7.367188 21.117188 7.386719 21.132812 7.496094 21.132812 C 7.613281 21.132812 7.714844 21.242188 7.714844 21.367188 C 7.714844 21.378906 7.578125 21.386719 7.414062 21.386719 L 7.109375 21.386719 L 7.121094 21.503906 C 7.128906 21.601562 7.113281 21.617188 7.007812 21.617188 C 6.910156 21.617188 6.890625 21.632812 6.890625 21.726562 C 6.890625 21.8125 6.863281 21.84375 6.78125 21.859375 C 6.632812 21.886719 6.628906 21.878906 6.628906 21.484375 L 6.628906 21.132812 L 5.894531 21.132812 L 5.894531 21.261719 C 5.894531 21.386719 5.894531 21.386719 6.152344 21.386719 L 6.414062 21.386719 L 6.414062 21.847656 L 6.152344 21.847656 C 5.898438 21.847656 5.894531 21.847656 5.894531 21.734375 C 5.894531 21.621094 5.886719 21.617188 5.65625 21.617188 C 5.421875 21.617188 5.417969 21.621094 5.417969 21.734375 C 5.417969 21.835938 5.433594 21.847656 5.550781 21.847656 L 5.683594 21.847656 L 5.671875 22.078125 C 5.65625 22.308594 5.65625 22.3125 5.773438 22.3125 C 5.871094 22.3125 5.894531 22.292969 5.894531 22.207031 C 5.894531 22.105469 5.910156 22.101562 6.109375 22.101562 C 6.230469 22.101562 6.34375 22.097656 6.359375 22.089844 C 6.375 22.085938 6.398438 22.132812 6.40625 22.195312 C 6.414062 22.285156 6.441406 22.3125 6.523438 22.3125 C 6.625 22.3125 6.628906 22.324219 6.628906 22.566406 L 6.628906 22.820312 L 6.875 22.808594 C 7.160156 22.792969 7.285156 22.5625 7.011719 22.5625 L 6.890625 22.5625 L 6.890625 21.847656 L 7.632812 21.847656 L 7.617188 21.734375 C 7.605469 21.632812 7.621094 21.617188 7.722656 21.605469 C 7.832031 21.59375 7.84375 21.605469 7.84375 21.71875 C 7.84375 21.835938 7.855469 21.847656 7.972656 21.847656 C 8.042969 21.847656 8.101562 21.832031 8.101562 21.8125 C 8.101562 21.71875 8.316406 21.875 8.328125 21.976562 C 8.339844 22.078125 8.351562 22.078125 8.722656 22.09375 L 9.101562 22.105469 L 9.101562 21.976562 C 9.101562 21.867188 9.117188 21.847656 9.207031 21.847656 C 9.296875 21.847656 9.316406 21.828125 9.316406 21.742188 C 9.316406 21.683594 9.300781 21.636719 9.277344 21.636719 C 9.257812 21.636719 9.207031 21.628906 9.167969 21.613281 C 9.113281 21.59375 9.101562 21.617188 9.101562 21.71875 L 9.101562 21.847656 L 8.765625 21.847656 C 8.441406 21.84375 8.433594 21.84375 8.566406 21.789062 C 8.730469 21.71875 8.851562 21.550781 8.8125 21.457031 C 8.792969 21.398438 8.816406 21.386719 8.945312 21.386719 L 9.101562 21.386719 L 9.101562 21.128906 C 9.101562 20.902344 9.109375 20.875 9.175781 20.902344 C 9.46875 21.011719 9.667969 20.910156 9.816406 20.574219 C 9.941406 20.277344 9.539062 19.839844 9.238281 19.949219 C 9 20.035156 8.578125 19.957031 8.578125 19.828125 C 8.578125 19.726562 8.5625 19.707031 8.472656 19.707031 C 8.386719 19.707031 8.363281 19.683594 8.363281 19.601562 C 8.363281 19.511719 8.34375 19.496094 8.230469 19.496094 C 8.019531 19.496094 8.042969 19.152344 8.253906 19.128906 C 8.59375 19.097656 8.886719 19.09375 8.90625 19.117188 C 8.929688 19.15625 9.359375 19.074219 9.359375 19.03125 C 9.359375 18.980469 9.738281 18.851562 9.789062 18.882812 C 9.816406 18.898438 9.835938 18.9375 9.835938 18.972656 C 9.835938 19.007812 9.855469 19.035156 9.878906 19.035156 C 9.902344 19.035156 9.941406 19.113281 9.964844 19.210938 C 10.113281 19.78125 10.832031 20.835938 11.082031 20.839844 C 11.148438 20.84375 11.550781 21.242188 11.550781 21.300781 C 11.550781 21.339844 11.410156 21.429688 11.242188 21.511719 C 10.714844 21.765625 10.53125 21.964844 10.53125 22.28125 C 10.53125 22.597656 10.429688 22.753906 10.023438 23.054688 C 9.855469 23.183594 9.84375 23.183594 9.824219 23.105469 C 9.78125 22.957031 9.34375 23.007812 9.324219 23.160156 C 9.316406 23.253906 9.289062 23.277344 9.207031 23.277344 C 9.09375 23.277344 9.09375 23.269531 9.082031 22.949219 L 9.078125 22.808594 L 9.695312 22.8125 L 10.3125 22.820312 L 10.3125 22.691406 C 10.3125 22.578125 10.300781 22.5625 10.183594 22.5625 C 10.070312 22.5625 10.054688 22.546875 10.054688 22.4375 C 10.054688 22.324219 10.070312 22.3125 10.183594 22.3125 C 10.3125 22.3125 10.3125 22.308594 10.3125 22.074219 L 10.3125 21.839844 L 10.183594 21.863281 C 10.058594 21.886719 10.054688 21.882812 10.054688 21.738281 L 10.054688 21.585938 L 10.789062 21.625 L 10.789062 21.503906 C 10.789062 21.386719 10.792969 21.386719 11.050781 21.386719 C 11.308594 21.386719 11.308594 21.386719 11.308594 21.261719 L 11.308594 21.132812 L 10.546875 21.132812 L 10.566406 21.261719 L 10.585938 21.386719 L 9.316406 21.386719 L 9.316406 21.492188 C 9.316406 21.578125 9.335938 21.597656 9.445312 21.597656 L 9.578125 21.597656 L 9.578125 21.851562 C 9.578125 22.105469 9.578125 22.105469 9.695312 22.09375 C 9.8125 22.078125 9.816406 22.085938 9.828125 22.320312 L 9.839844 22.5625 L 9.710938 22.5625 C 9.601562 22.5625 9.582031 22.542969 9.566406 22.449219 C 9.546875 22.28125 9.34375 22.28125 9.324219 22.449219 C 9.300781 22.636719 8.839844 22.625 8.839844 22.433594 C 8.839844 22.230469 8.609375 22.269531 8.589844 22.476562 C 8.5625 22.71875 8.609375 22.820312 8.730469 22.789062 C 8.832031 22.765625 8.839844 22.773438 8.839844 22.914062 C 8.839844 23.058594 8.832031 23.066406 8.710938 23.066406 C 8.421875 23.066406 8.535156 23.277344 8.828125 23.285156 C 8.964844 23.285156 9.03125 23.296875 8.96875 23.308594 C 8.910156 23.320312 8.8125 23.363281 8.75 23.40625 C 8.628906 23.492188 8.578125 23.476562 8.578125 23.355469 C 8.578125 23.300781 8.546875 23.277344 8.472656 23.277344 C 8.378906 23.277344 8.363281 23.296875 8.363281 23.402344 C 8.363281 23.53125 8.363281 23.53125 8.101562 23.53125 C 7.855469 23.53125 7.84375 23.535156 7.84375 23.632812 C 7.84375 23.734375 7.855469 23.738281 8.070312 23.738281 C 8.308594 23.742188 8.453125 23.789062 8.367188 23.84375 C 8.269531 23.902344 8.316406 23.992188 8.449219 23.992188 C 8.554688 23.992188 8.574219 23.972656 8.589844 23.875 C 8.597656 23.777344 8.617188 23.761719 8.722656 23.773438 C 8.828125 23.785156 8.839844 23.769531 8.839844 23.65625 L 8.839844 23.53125 L 10.054688 23.53125 L 10.054688 23.277344 L 10.582031 23.277344 L 10.550781 22.816406 L 11.050781 22.816406 L 11.050781 22.5625 C 11.050781 22.3125 11.050781 22.3125 10.921875 22.3125 C 10.808594 22.3125 10.789062 22.292969 10.789062 22.207031 C 10.789062 22.117188 10.808594 22.101562 10.921875 22.101562 C 11.035156 22.101562 11.050781 22.085938 11.050781 21.976562 C 11.050781 21.851562 11.050781 21.847656 11.289062 21.847656 C 11.511719 21.847656 11.527344 21.84375 11.527344 21.746094 C 11.527344 21.675781 11.554688 21.644531 11.640625 21.628906 C 11.757812 21.605469 11.816406 21.675781 11.773438 21.785156 C 11.75 21.839844 11.808594 21.847656 12.136719 21.847656 L 12.53125 21.847656 L 12.5 21.976562 C 12.472656 22.097656 12.476562 22.101562 12.632812 22.101562 L 12.796875 22.101562 L 12.769531 21.871094 L 12.746094 21.636719 L 12.871094 21.636719 C 12.984375 21.636719 13 21.625 13 21.511719 C 13 21.386719 12.996094 21.386719 12.761719 21.386719 C 12.527344 21.386719 12.523438 21.382812 12.523438 21.261719 C 12.523438 21.132812 12.523438 21.132812 12.265625 21.132812 C 12.011719 21.132812 12.011719 21.132812 12.015625 21.019531 C 12.023438 20.90625 12.019531 20.902344 11.777344 20.90625 C 11.53125 20.90625 11.527344 20.902344 11.527344 20.789062 C 11.527344 20.691406 11.507812 20.671875 11.417969 20.671875 C 11.328125 20.671875 11.308594 20.652344 11.308594 20.546875 C 11.308594 20.433594 11.292969 20.421875 11.179688 20.421875 C 11.0625 20.421875 11.050781 20.40625 11.050781 20.292969 C 11.050781 20.175781 11.035156 20.164062 10.929688 20.175781 C 10.828125 20.1875 10.808594 20.171875 10.796875 20.074219 C 10.789062 19.984375 10.761719 19.957031 10.683594 19.957031 C 10.585938 19.957031 10.578125 19.9375 10.566406 19.714844 C 10.550781 19.480469 10.550781 19.476562 10.433594 19.488281 L 10.3125 19.5 L 10.3125 18.742188 L 10.183594 18.765625 C 10.0625 18.789062 10.054688 18.785156 10.054688 18.660156 C 10.054688 18.546875 10.039062 18.53125 9.945312 18.53125 C 9.855469 18.53125 9.835938 18.511719 9.835938 18.402344 C 9.835938 18.292969 9.820312 18.277344 9.707031 18.277344 C 9.59375 18.277344 9.578125 18.292969 9.578125 18.402344 C 9.578125 18.515625 9.5625 18.53125 9.445312 18.53125 C 9.332031 18.53125 9.316406 18.542969 9.316406 18.65625 L 9.316406 18.78125 L 8.683594 18.78125 C 8.125 18.78125 8.054688 18.773438 8.078125 18.714844 C 8.09375 18.679688 8.101562 18.574219 8.101562 18.484375 C 8.101562 18.328125 8.113281 18.320312 8.234375 18.320312 C 8.347656 18.320312 8.363281 18.304688 8.363281 18.191406 C 8.363281 18.082031 8.378906 18.066406 8.492188 18.066406 C 8.621094 18.066406 8.625 18.066406 8.625 17.835938 C 8.625 17.617188 8.628906 17.605469 8.730469 17.605469 C 8.824219 17.605469 8.839844 17.585938 8.839844 17.480469 C 8.839844 17.367188 8.855469 17.351562 8.96875 17.351562 C 9.097656 17.351562 9.101562 17.351562 9.101562 17.121094 L 9.101562 16.890625 L 9.578125 16.890625 L 9.578125 15.460938 L 9.707031 15.460938 C 9.820312 15.460938 9.835938 15.449219 9.835938 15.335938 C 9.835938 15.226562 9.820312 15.210938 9.707031 15.210938 C 9.597656 15.210938 9.578125 15.226562 9.578125 15.316406 C 9.578125 15.417969 9.574219 15.421875 9.207031 15.421875 L 8.839844 15.421875 L 8.839844 15.546875 C 8.839844 15.65625 8.824219 15.671875 8.710938 15.671875 C 8.59375 15.671875 8.578125 15.6875 8.578125 15.796875 C 8.578125 15.90625 8.5625 15.925781 8.472656 15.925781 C 8.367188 15.925781 8.363281 15.921875 8.363281 15.566406 L 8.363281 15.210938 L 8.730469 15.210938 C 9.09375 15.210938 9.101562 15.207031 9.101562 15.105469 C 9.101562 15.027344 9.125 15.003906 9.21875 14.992188 L 9.339844 14.980469 L 9.339844 13.089844 L 9.457031 13.101562 C 9.566406 13.113281 9.578125 13.101562 9.578125 12.964844 C 9.578125 12.824219 9.566406 12.816406 9.445312 12.816406 C 9.332031 12.816406 9.316406 12.828125 9.316406 12.941406 C 9.316406 13.050781 9.300781 13.066406 9.1875 13.066406 C 9.070312 13.066406 9.058594 13.082031 9.058594 13.191406 C 9.058594 13.300781 9.039062 13.320312 8.949219 13.320312 C 8.855469 13.320312 8.839844 13.300781 8.839844 13.191406 C 8.839844 13.082031 8.824219 13.066406 8.710938 13.066406 C 8.59375 13.066406 8.578125 13.082031 8.578125 13.195312 C 8.578125 13.3125 8.566406 13.324219 8.460938 13.3125 L 8.339844 13.296875 L 8.328125 13.671875 C 8.316406 14.042969 8.316406 14.042969 8.210938 14.015625 C 8.113281 13.992188 8.101562 14.003906 8.101562 14.117188 C 8.101562 14.242188 8.101562 14.242188 7.863281 14.242188 L 7.625 14.242188 L 7.625 13.066406 L 7.757812 13.066406 C 7.890625 13.066406 7.890625 13.066406 7.878906 12.847656 L 7.863281 12.625 L 8.351562 12.613281 C 8.835938 12.601562 8.839844 12.601562 8.839844 12.496094 C 8.839844 12.410156 8.863281 12.394531 8.96875 12.394531 C 9.085938 12.394531 9.101562 12.378906 9.101562 12.269531 C 9.101562 12.15625 9.113281 12.144531 9.230469 12.144531 C 9.34375 12.144531 9.359375 12.128906 9.359375 12.015625 C 9.359375 11.910156 9.378906 11.890625 9.46875 11.890625 C 9.554688 11.890625 9.578125 11.871094 9.578125 11.785156 C 9.578125 11.699219 9.597656 11.679688 9.707031 11.679688 C 9.820312 11.679688 9.835938 11.664062 9.835938 11.554688 C 9.835938 11.441406 9.851562 11.429688 9.964844 11.429688 C 10.09375 11.429688 10.097656 11.425781 10.097656 11.199219 C 10.097656 10.980469 10.101562 10.964844 10.203125 10.964844 C 10.296875 10.964844 10.3125 10.949219 10.3125 10.839844 C 10.3125 10.730469 10.328125 10.714844 10.441406 10.714844 L 10.574219 10.714844 L 10.574219 9.746094 L 10.441406 9.746094 C 10.328125 9.746094 10.3125 9.761719 10.3125 9.875 C 10.3125 9.984375 10.296875 10 10.183594 10 C 10.054688 10 10.054688 10 10.054688 9.746094 L 10.054688 9.496094 L 10.320312 9.496094 L 10.308594 9.148438 L 10.300781 8.800781 L 10.546875 8.789062 L 10.789062 8.777344 L 10.789062 8.066406 L 11.050781 8.066406 L 11.050781 8.824219 L 10.921875 8.824219 C 10.8125 8.824219 10.789062 8.839844 10.789062 8.925781 C 10.789062 9.007812 10.765625 9.03125 10.671875 9.042969 L 10.550781 9.054688 L 10.566406 9.390625 C 10.585938 9.777344 10.570312 9.742188 10.707031 9.757812 C 10.8125 9.769531 10.8125 9.765625 10.808594 9.425781 L 10.804688 9.078125 L 11.289062 9.054688 L 11.300781 8.097656 L 11.3125 7.144531 L 11.417969 7.144531 C 11.507812 7.144531 11.527344 7.125 11.527344 7.015625 C 11.527344 6.90625 11.511719 6.890625 11.398438 6.890625 C 11.28125 6.890625 11.265625 6.90625 11.265625 7.015625 C 11.265625 7.128906 11.25 7.144531 11.144531 7.144531 C 11.035156 7.144531 11.023438 7.15625 11.039062 7.246094 C 11.058594 7.34375 11.046875 7.351562 10.925781 7.351562 C 10.804688 7.351562 10.789062 7.367188 10.789062 7.480469 C 10.789062 7.601562 10.789062 7.605469 10.550781 7.605469 C 10.316406 7.605469 10.3125 7.605469 10.3125 7.730469 C 10.3125 7.84375 10.296875 7.855469 10.183594 7.855469 L 10.054688 7.855469 L 10.054688 8.570312 L 9.921875 8.570312 C 9.8125 8.570312 9.792969 8.589844 9.792969 8.675781 C 9.792969 8.761719 9.773438 8.78125 9.683594 8.78125 L 9.578125 8.78125 L 9.578125 9.746094 L 9.445312 9.746094 C 9.328125 9.746094 9.316406 9.761719 9.316406 9.875 C 9.316406 9.992188 9.304688 10.003906 9.199219 9.992188 C 9.09375 9.980469 9.074219 9.996094 9.066406 10.09375 C 9.054688 10.183594 9.027344 10.210938 8.945312 10.210938 C 8.847656 10.210938 8.839844 10.222656 8.839844 10.460938 L 8.839844 10.710938 L 8.710938 10.6875 L 8.578125 10.660156 L 8.578125 11.175781 L 8.449219 11.175781 C 8.332031 11.175781 8.316406 11.1875 8.328125 11.292969 C 8.339844 11.390625 8.324219 11.410156 8.222656 11.421875 L 8.101562 11.433594 L 8.101562 10.714844 L 8.363281 10.714844 L 8.363281 9.035156 L 8.234375 9.035156 C 8.105469 9.035156 8.101562 9.03125 8.101562 8.800781 C 8.101562 8.574219 8.101562 8.570312 7.972656 8.570312 C 7.859375 8.570312 7.84375 8.558594 7.84375 8.445312 C 7.84375 8.335938 7.859375 8.320312 7.972656 8.320312 C 8.085938 8.320312 8.101562 8.304688 8.101562 8.203125 C 8.101562 8.089844 8.109375 8.089844 8.351562 8.089844 L 8.601562 8.089844 L 8.585938 7.839844 L 8.570312 7.59375 L 8.707031 7.613281 L 8.839844 7.632812 L 8.839844 6.882812 L 8.960938 6.898438 L 9.078125 6.910156 L 9.089844 6.542969 C 9.105469 6.175781 9.105469 6.175781 9.210938 6.203125 C 9.304688 6.226562 9.316406 6.214844 9.316406 6.097656 L 9.316406 5.964844 L 10.789062 5.964844 L 10.789062 5.839844 C 10.789062 5.730469 10.804688 5.714844 10.921875 5.714844 C 11.035156 5.714844 11.050781 5.699219 11.050781 5.585938 L 11.050781 5.457031 L 10.3125 5.46875 L 9.578125 5.484375 L 9.578125 4.761719 L 9.84375 4.800781 L 9.832031 4.4375 L 9.816406 4.074219 L 10.054688 4.074219 L 10.054688 3.363281 L 10.3125 3.363281 L 10.3125 2.648438 L 10.582031 2.648438 L 10.550781 1.679688 L 10.671875 1.679688 C 10.773438 1.679688 10.789062 1.664062 10.789062 1.554688 C 10.789062 1.4375 10.796875 1.433594 10.921875 1.457031 L 11.050781 1.480469 L 11.050781 0.253906 L 10.921875 0.253906 C 10.808594 0.253906 10.789062 0.234375 10.789062 0.148438 L 10.789062 0.0429688 L 9.792969 0.0429688 Z M 10.550781 0.863281 L 10.550781 1.21875 L 10.054688 1.21875 L 10.054688 0.503906 L 10.550781 0.503906 Z M 10.121094 2.246094 C 10.117188 2.28125 10.101562 2.320312 10.082031 2.339844 C 10.066406 2.351562 10.054688 2.402344 10.054688 2.441406 C 10.054688 2.585938 9.980469 2.558594 9.976562 2.414062 C 9.972656 2.292969 10.03125 2.203125 10.125 2.1875 C 10.128906 2.183594 10.128906 2.210938 10.121094 2.246094 Z M 9.9375 2.714844 C 9.925781 2.746094 9.898438 2.761719 9.878906 2.753906 C 9.839844 2.726562 9.855469 2.949219 9.898438 3.019531 C 9.914062 3.046875 9.910156 3.066406 9.886719 3.066406 C 9.867188 3.066406 9.816406 3.144531 9.773438 3.234375 C 9.703125 3.382812 9.664062 3.417969 9.578125 3.410156 C 9.566406 3.410156 9.554688 3.453125 9.554688 3.507812 C 9.554688 3.5625 9.570312 3.597656 9.585938 3.585938 C 9.605469 3.574219 9.621094 3.535156 9.621094 3.496094 C 9.621094 3.460938 9.628906 3.441406 9.644531 3.453125 C 9.683594 3.492188 9.613281 3.699219 9.574219 3.675781 C 9.550781 3.660156 9.535156 3.671875 9.535156 3.695312 C 9.535156 3.71875 9.554688 3.738281 9.582031 3.738281 C 9.617188 3.738281 9.617188 3.753906 9.582031 3.796875 C 9.554688 3.828125 9.546875 3.867188 9.566406 3.886719 C 9.582031 3.90625 9.574219 3.90625 9.542969 3.886719 C 9.503906 3.867188 9.488281 3.878906 9.496094 3.914062 C 9.503906 3.945312 9.484375 4.011719 9.453125 4.066406 C 9.425781 4.117188 9.394531 4.214844 9.390625 4.285156 C 9.386719 4.355469 9.367188 4.410156 9.351562 4.410156 C 9.339844 4.410156 9.335938 4.449219 9.347656 4.492188 C 9.359375 4.539062 9.335938 4.59375 9.285156 4.628906 C 9.222656 4.671875 9.203125 4.730469 9.203125 4.863281 C 9.207031 4.960938 9.1875 5.046875 9.164062 5.058594 C 9.136719 5.066406 9.140625 5.101562 9.171875 5.15625 C 9.207031 5.210938 9.207031 5.261719 9.179688 5.3125 C 9.148438 5.363281 9.148438 5.398438 9.179688 5.414062 C 9.300781 5.488281 9.21875 5.757812 9.070312 5.757812 C 9.039062 5.757812 9.019531 5.773438 9.035156 5.796875 C 9.050781 5.820312 9.039062 5.839844 9.011719 5.839844 C 8.988281 5.839844 8.980469 5.863281 8.996094 5.886719 C 9.019531 5.921875 9.003906 5.929688 8.953125 5.910156 C 8.910156 5.894531 8.882812 5.90625 8.882812 5.949219 C 8.882812 5.980469 8.863281 6.007812 8.835938 6.007812 C 8.8125 6.007812 8.804688 6.027344 8.816406 6.046875 C 8.832031 6.070312 8.808594 6.125 8.765625 6.164062 C 8.722656 6.207031 8.691406 6.296875 8.691406 6.371094 C 8.695312 6.5 8.515625 6.933594 8.457031 6.933594 C 8.441406 6.933594 8.425781 7.03125 8.425781 7.152344 C 8.421875 7.273438 8.398438 7.375 8.371094 7.386719 C 8.339844 7.394531 8.320312 7.4375 8.320312 7.484375 C 8.320312 7.527344 8.292969 7.5625 8.257812 7.5625 C 8.226562 7.5625 8.167969 7.609375 8.128906 7.664062 C 8.039062 7.804688 7.875 7.894531 7.917969 7.785156 C 7.933594 7.742188 7.957031 7.691406 7.976562 7.667969 C 7.992188 7.644531 8 7.59375 7.992188 7.550781 C 7.988281 7.511719 7.996094 7.480469 8.011719 7.480469 C 8.03125 7.480469 8.035156 7.40625 8.027344 7.320312 C 8.015625 7.203125 8.023438 7.179688 8.054688 7.226562 C 8.09375 7.28125 8.101562 7.277344 8.109375 7.207031 C 8.125 6.976562 8.140625 6.921875 8.191406 6.890625 C 8.28125 6.835938 8.28125 6.390625 8.1875 6.199219 C 8.078125 5.96875 8.070312 5.902344 8.148438 5.902344 C 8.183594 5.902344 8.257812 5.875 8.3125 5.84375 C 8.398438 5.796875 8.414062 5.800781 8.386719 5.847656 C 8.371094 5.878906 8.398438 5.851562 8.449219 5.789062 C 8.503906 5.726562 8.5625 5.683594 8.585938 5.695312 C 8.605469 5.707031 8.625 5.691406 8.625 5.65625 C 8.625 5.621094 8.65625 5.570312 8.703125 5.539062 C 8.746094 5.507812 8.816406 5.421875 8.863281 5.347656 C 8.90625 5.273438 8.960938 5.226562 8.980469 5.234375 C 9 5.246094 9.011719 5.234375 9.011719 5.210938 C 9.011719 5.183594 9.03125 5.175781 9.058594 5.1875 C 9.082031 5.203125 9.097656 5.171875 9.09375 5.117188 C 9.09375 5.066406 9.082031 5.042969 9.070312 5.074219 C 9.058594 5.101562 9.03125 5.125 9.007812 5.125 C 8.984375 5.125 8.992188 5.074219 9.027344 5.011719 C 9.058594 4.949219 9.074219 4.863281 9.066406 4.820312 C 9.058594 4.78125 9.074219 4.746094 9.101562 4.746094 C 9.128906 4.746094 9.140625 4.71875 9.128906 4.683594 C 9.113281 4.648438 9.121094 4.621094 9.136719 4.621094 C 9.199219 4.621094 9.285156 4.398438 9.296875 4.210938 C 9.300781 4.105469 9.339844 3.992188 9.386719 3.941406 C 9.429688 3.890625 9.445312 3.863281 9.417969 3.878906 C 9.386719 3.898438 9.390625 3.859375 9.433594 3.777344 C 9.46875 3.707031 9.5 3.597656 9.5 3.535156 C 9.5 3.476562 9.53125 3.386719 9.570312 3.347656 C 9.609375 3.300781 9.636719 3.261719 9.628906 3.253906 C 9.601562 3.203125 9.625 3.148438 9.667969 3.175781 C 9.695312 3.191406 9.699219 3.214844 9.679688 3.230469 C 9.660156 3.242188 9.636719 3.285156 9.628906 3.320312 C 9.621094 3.367188 9.636719 3.363281 9.679688 3.304688 C 9.714844 3.261719 9.734375 3.199219 9.71875 3.164062 C 9.707031 3.132812 9.734375 3.078125 9.777344 3.042969 C 9.832031 3.003906 9.839844 2.988281 9.792969 2.996094 C 9.757812 3.003906 9.742188 3.003906 9.757812 2.992188 C 9.777344 2.984375 9.777344 2.945312 9.765625 2.90625 C 9.746094 2.847656 9.746094 2.84375 9.789062 2.898438 C 9.832031 2.957031 9.835938 2.953125 9.835938 2.898438 C 9.835938 2.863281 9.816406 2.8125 9.789062 2.785156 C 9.753906 2.753906 9.765625 2.730469 9.832031 2.710938 C 9.882812 2.695312 9.921875 2.664062 9.921875 2.644531 C 9.921875 2.621094 9.882812 2.625 9.824219 2.652344 C 9.726562 2.703125 9.726562 2.703125 9.8125 2.613281 C 9.855469 2.5625 9.878906 2.519531 9.863281 2.519531 C 9.84375 2.519531 9.84375 2.496094 9.863281 2.46875 C 9.902344 2.40625 9.972656 2.628906 9.9375 2.714844 Z M 11.136719 7.898438 C 11.136719 7.921875 11.089844 7.941406 11.03125 7.941406 C 10.8125 7.941406 10.710938 8.023438 10.636719 8.261719 C 10.601562 8.386719 10.554688 8.488281 10.535156 8.488281 C 10.515625 8.488281 10.476562 8.535156 10.449219 8.59375 C 10.378906 8.742188 10.3125 8.683594 10.3125 8.480469 C 10.3125 8.324219 10.320312 8.3125 10.433594 8.328125 C 10.550781 8.339844 10.550781 8.339844 10.542969 8.097656 L 10.535156 7.855469 L 10.835938 7.855469 C 11.007812 7.855469 11.136719 7.875 11.136719 7.898438 Z M 7.5 8.421875 C 7.464844 8.5 7.476562 8.542969 7.542969 8.617188 C 7.589844 8.667969 7.625 8.753906 7.625 8.808594 C 7.625 8.859375 7.65625 8.929688 7.695312 8.96875 C 7.734375 9.003906 7.746094 9.035156 7.730469 9.035156 C 7.710938 9.035156 7.726562 9.058594 7.769531 9.085938 C 7.808594 9.117188 7.851562 9.183594 7.859375 9.242188 C 7.871094 9.300781 7.882812 9.347656 7.886719 9.347656 C 7.890625 9.347656 7.898438 9.40625 7.902344 9.480469 C 7.902344 9.554688 7.894531 9.605469 7.875 9.59375 C 7.859375 9.585938 7.84375 9.59375 7.84375 9.617188 C 7.84375 9.636719 7.867188 9.664062 7.898438 9.679688 C 7.9375 9.695312 7.9375 9.707031 7.894531 9.738281 C 7.851562 9.765625 7.847656 9.789062 7.882812 9.808594 C 7.910156 9.824219 7.929688 9.859375 7.929688 9.886719 C 7.929688 9.914062 7.914062 9.910156 7.886719 9.875 C 7.839844 9.800781 7.832031 9.835938 7.871094 9.933594 C 7.882812 9.96875 7.914062 9.988281 7.933594 9.976562 C 7.957031 9.964844 7.964844 9.980469 7.957031 10.007812 C 7.898438 10.1875 7.890625 10.339844 7.941406 10.316406 C 7.972656 10.300781 7.957031 10.316406 7.914062 10.351562 C 7.871094 10.386719 7.847656 10.433594 7.859375 10.457031 C 7.875 10.480469 7.859375 10.515625 7.824219 10.535156 C 7.78125 10.558594 7.746094 10.660156 7.730469 10.820312 C 7.714844 10.957031 7.671875 11.105469 7.636719 11.144531 C 7.601562 11.183594 7.585938 11.21875 7.601562 11.21875 C 7.621094 11.21875 7.613281 11.246094 7.582031 11.28125 C 7.542969 11.328125 7.515625 11.335938 7.46875 11.296875 C 7.4375 11.269531 7.410156 11.265625 7.410156 11.285156 C 7.410156 11.304688 7.386719 11.296875 7.359375 11.269531 C 7.320312 11.234375 7.324219 11.207031 7.363281 11.160156 C 7.398438 11.121094 7.398438 11.089844 7.367188 11.074219 C 7.34375 11.058594 7.324219 11.027344 7.324219 11.003906 C 7.324219 10.980469 7.34375 10.976562 7.367188 10.988281 C 7.398438 11.007812 7.410156 10.988281 7.402344 10.941406 C 7.394531 10.898438 7.425781 10.847656 7.484375 10.816406 C 7.539062 10.789062 7.597656 10.753906 7.617188 10.734375 C 7.632812 10.714844 7.625 10.714844 7.59375 10.730469 C 7.558594 10.75 7.539062 10.734375 7.539062 10.691406 C 7.539062 10.65625 7.558594 10.636719 7.582031 10.648438 C 7.625 10.675781 7.703125 10.558594 7.757812 10.371094 C 7.777344 10.304688 7.777344 10.253906 7.753906 10.253906 C 7.734375 10.253906 7.722656 10.230469 7.734375 10.199219 C 7.769531 10.105469 7.789062 9.835938 7.761719 9.824219 C 7.699219 9.792969 7.535156 9.445312 7.554688 9.390625 C 7.566406 9.355469 7.5625 9.320312 7.539062 9.304688 C 7.515625 9.292969 7.503906 9.234375 7.515625 9.175781 C 7.527344 9.109375 7.503906 9.042969 7.449219 8.988281 C 7.402344 8.941406 7.378906 8.882812 7.398438 8.839844 C 7.414062 8.792969 7.40625 8.777344 7.378906 8.796875 C 7.347656 8.816406 7.332031 8.792969 7.335938 8.742188 C 7.339844 8.699219 7.355469 8.671875 7.375 8.683594 C 7.425781 8.710938 7.417969 8.636719 7.359375 8.582031 C 7.285156 8.511719 7.351562 8.320312 7.453125 8.320312 C 7.523438 8.320312 7.53125 8.335938 7.5 8.421875 Z M 10.164062 9.003906 C 10.15625 9.101562 10.144531 9.207031 10.140625 9.234375 C 10.140625 9.265625 10.121094 9.28125 10.097656 9.265625 C 10.019531 9.21875 10.042969 8.824219 10.121094 8.824219 C 10.175781 8.824219 10.183594 8.859375 10.164062 9.003906 Z M 9.890625 9.714844 L 9.84375 9.851562 L 9.839844 9.664062 C 9.835938 9.523438 9.851562 9.492188 9.886719 9.527344 C 9.921875 9.5625 9.925781 9.613281 9.890625 9.714844 Z M 10.015625 10 C 10.035156 10 10.054688 10.207031 10.054688 10.460938 L 10.054688 10.917969 L 9.933594 10.933594 C 9.832031 10.941406 9.816406 10.960938 9.828125 11.0625 C 9.839844 11.164062 9.824219 11.175781 9.707031 11.175781 C 9.59375 11.175781 9.578125 11.191406 9.578125 11.300781 C 9.578125 11.414062 9.5625 11.429688 9.445312 11.429688 C 9.320312 11.429688 9.316406 11.429688 9.316406 11.660156 L 9.316406 11.890625 L 9.078125 11.890625 C 8.84375 11.890625 8.839844 11.894531 8.839844 12.015625 C 8.839844 12.140625 8.835938 12.144531 8.601562 12.144531 C 8.378906 12.144531 8.363281 12.148438 8.363281 12.242188 C 8.363281 12.351562 7.507812 12.425781 6.714844 12.382812 L 6.390625 12.367188 L 6.390625 12.121094 L 7.367188 12.113281 L 8.339844 12.105469 L 8.328125 11.996094 C 8.316406 11.894531 8.324219 11.890625 8.578125 11.890625 L 8.839844 11.890625 L 8.839844 11.765625 C 8.839844 11.652344 8.851562 11.636719 8.976562 11.636719 L 9.113281 11.636719 L 9.085938 11.40625 L 9.0625 11.175781 L 9.1875 11.175781 C 9.316406 11.175781 9.316406 11.175781 9.316406 10.925781 L 9.316406 10.675781 L 9.5625 10.683594 L 9.8125 10.691406 L 9.800781 10.371094 C 9.785156 10.019531 9.808594 9.9375 9.910156 9.976562 C 9.945312 9.988281 9.992188 10 10.015625 10 Z M 9.707031 10.074219 C 9.703125 10.351562 9.480469 10.660156 9.347656 10.554688 C 9.320312 10.53125 9.246094 10.503906 9.1875 10.492188 C 9.128906 10.484375 9.191406 10.46875 9.328125 10.46875 L 9.578125 10.460938 L 9.578125 10.230469 C 9.578125 10.054688 9.59375 10 9.640625 10 C 9.679688 10 9.707031 10.035156 9.707031 10.074219 Z M 5.894531 11.40625 C 5.894531 11.625 5.886719 11.636719 5.785156 11.636719 C 5.695312 11.636719 5.675781 11.65625 5.675781 11.765625 C 5.675781 11.875 5.660156 11.890625 5.546875 11.890625 C 5.433594 11.890625 5.417969 11.90625 5.417969 12.015625 C 5.417969 12.121094 5.398438 12.144531 5.308594 12.144531 C 5.226562 12.144531 5.203125 12.167969 5.191406 12.257812 C 5.179688 12.355469 5.15625 12.375 5.035156 12.386719 C 4.832031 12.40625 4.835938 12.128906 5.039062 12.109375 C 5.128906 12.097656 5.15625 12.074219 5.15625 11.992188 C 5.15625 11.90625 5.179688 11.890625 5.289062 11.890625 C 5.410156 11.890625 5.421875 11.878906 5.40625 11.773438 C 5.398438 11.675781 5.414062 11.65625 5.515625 11.648438 C 5.625 11.632812 5.632812 11.621094 5.632812 11.40625 C 5.632812 11.179688 5.636719 11.175781 5.761719 11.175781 C 5.890625 11.175781 5.894531 11.179688 5.894531 11.40625 Z M 8.101562 11.464844 C 8.101562 11.484375 8.113281 11.558594 8.128906 11.628906 C 8.167969 11.8125 7.9375 11.882812 7.238281 11.898438 C 6.941406 11.90625 6.738281 11.90625 6.792969 11.898438 C 6.863281 11.886719 6.890625 11.855469 6.890625 11.789062 C 6.890625 11.65625 6.957031 11.636719 7.4375 11.636719 C 7.839844 11.636719 7.84375 11.636719 7.84375 11.535156 C 7.84375 11.445312 7.863281 11.429688 7.972656 11.429688 C 8.042969 11.429688 8.101562 11.445312 8.101562 11.464844 Z M 6.21875 12.183594 C 6.265625 12.257812 6.105469 12.433594 5.835938 12.597656 C 5.6875 12.691406 5.484375 12.84375 5.382812 12.9375 C 5.277344 13.039062 5.199219 13.085938 5.199219 13.050781 C 5.199219 13.015625 5.1875 12.960938 5.175781 12.925781 C 5.152344 12.871094 5.175781 12.855469 5.28125 12.855469 C 5.402344 12.855469 5.417969 12.84375 5.417969 12.730469 C 5.417969 12.617188 5.429688 12.605469 5.550781 12.605469 C 5.675781 12.605469 5.679688 12.597656 5.65625 12.480469 C 5.628906 12.359375 5.632812 12.351562 5.757812 12.351562 C 5.875 12.351562 5.894531 12.339844 5.894531 12.246094 C 5.894531 12.136719 6.15625 12.085938 6.21875 12.183594 Z M 7.746094 12.507812 C 7.996094 12.566406 7.789062 12.605469 7.238281 12.605469 L 6.628906 12.605469 L 6.628906 12.730469 C 6.628906 12.835938 6.613281 12.851562 6.511719 12.84375 L 6.390625 12.835938 L 6.386719 13.425781 L 6.378906 14.011719 L 6.265625 14.023438 L 6.152344 14.039062 L 6.152344 15.210938 L 5.894531 15.210938 L 5.894531 16.386719 L 5.648438 16.386719 L 5.652344 16.984375 L 5.65625 17.585938 L 5.535156 17.570312 L 5.417969 17.558594 L 5.417969 19.03125 L 5.285156 19.007812 L 5.15625 18.980469 L 5.15625 19.957031 L 5.023438 19.957031 C 4.90625 19.957031 4.890625 19.96875 4.90625 20.074219 L 4.917969 20.1875 L 5.628906 20.203125 C 6.453125 20.214844 6.398438 20.242188 6.378906 19.808594 C 6.363281 19.472656 6.363281 19.464844 6.257812 19.484375 C 6.167969 19.503906 6.152344 19.492188 6.152344 19.375 C 6.152344 19.257812 6.167969 19.242188 6.277344 19.242188 C 6.390625 19.242188 6.394531 19.234375 6.378906 19.113281 C 6.359375 18.984375 6.363281 18.980469 6.492188 19 L 6.628906 19.019531 L 6.628906 17.816406 L 6.890625 17.816406 L 6.890625 16.636719 L 7.128906 16.636719 L 7.105469 14.746094 L 7.367188 14.746094 L 7.367188 14.492188 C 7.367188 14.238281 7.367188 14.238281 7.484375 14.253906 C 7.65625 14.269531 7.691406 14.496094 7.523438 14.496094 C 7.390625 14.496094 7.410156 14.601562 7.546875 14.644531 C 7.621094 14.667969 7.625 14.679688 7.578125 14.710938 C 7.535156 14.738281 7.546875 14.746094 7.625 14.746094 C 7.710938 14.746094 7.71875 14.757812 7.671875 14.789062 C 7.636719 14.808594 7.597656 14.816406 7.578125 14.808594 C 7.5625 14.796875 7.554688 14.820312 7.558594 14.863281 C 7.585938 15.042969 8.101562 15.015625 8.101562 14.828125 C 8.101562 14.726562 8.117188 14.710938 8.222656 14.71875 C 8.328125 14.726562 8.339844 14.714844 8.328125 14.613281 C 8.316406 14.496094 8.316406 14.496094 8.578125 14.496094 L 8.839844 14.496094 L 8.839844 14.242188 C 8.839844 13.984375 8.863281 13.957031 9.03125 14.015625 C 9.085938 14.039062 9.101562 14.113281 9.101562 14.394531 L 9.101562 14.746094 L 8.371094 14.746094 L 8.355469 14.863281 C 8.34375 14.953125 8.316406 14.980469 8.222656 14.992188 C 8.128906 15.003906 8.101562 15.027344 8.101562 15.105469 C 8.101562 15.203125 8.089844 15.210938 7.84375 15.210938 C 7.582031 15.210938 7.582031 15.210938 7.582031 15.085938 C 7.582031 15.015625 7.566406 14.957031 7.542969 14.957031 C 7.484375 14.957031 7.464844 15.128906 7.507812 15.234375 C 7.539062 15.308594 7.519531 15.355469 7.394531 15.484375 C 7.21875 15.675781 7.222656 15.691406 7.457031 15.679688 C 7.621094 15.671875 7.625 15.675781 7.625 15.796875 C 7.625 15.910156 7.613281 15.925781 7.496094 15.925781 C 7.410156 15.925781 7.367188 15.902344 7.367188 15.863281 C 7.367188 15.824219 7.339844 15.796875 7.300781 15.796875 C 7.265625 15.796875 7.238281 15.816406 7.238281 15.84375 C 7.238281 15.867188 7.265625 15.894531 7.300781 15.910156 C 7.34375 15.925781 7.367188 15.988281 7.367188 16.089844 C 7.367188 16.269531 7.402344 16.320312 7.480469 16.257812 C 7.523438 16.21875 7.542969 16.222656 7.558594 16.265625 C 7.566406 16.296875 7.585938 16.351562 7.597656 16.386719 C 7.609375 16.421875 7.625 16.382812 7.628906 16.300781 L 7.636719 16.15625 L 7.664062 16.300781 C 7.683594 16.382812 7.71875 16.445312 7.746094 16.4375 C 7.777344 16.433594 7.800781 16.449219 7.800781 16.472656 C 7.800781 16.496094 7.761719 16.507812 7.71875 16.492188 C 7.613281 16.460938 7.453125 16.617188 7.453125 16.753906 C 7.453125 16.855469 7.519531 16.882812 7.554688 16.796875 C 7.566406 16.765625 7.578125 16.78125 7.582031 16.828125 C 7.582031 16.875 7.597656 16.953125 7.613281 17.007812 C 7.632812 17.089844 7.621094 17.101562 7.5 17.101562 L 7.363281 17.101562 L 7.375 17.34375 C 7.386719 17.582031 7.390625 17.585938 7.515625 17.570312 C 7.632812 17.558594 7.636719 17.5625 7.617188 17.683594 C 7.605469 17.769531 7.617188 17.816406 7.652344 17.816406 C 7.691406 17.816406 7.703125 17.878906 7.699219 18.015625 C 7.695312 18.136719 7.710938 18.210938 7.738281 18.207031 C 7.765625 18.203125 7.777344 18.238281 7.765625 18.300781 C 7.746094 18.398438 7.671875 18.449219 7.671875 18.367188 C 7.671875 18.320312 7.5 18.355469 7.421875 18.414062 C 7.382812 18.445312 7.367188 18.433594 7.367188 18.367188 C 7.367188 18.296875 7.339844 18.277344 7.238281 18.277344 C 7.109375 18.277344 7.109375 18.273438 7.121094 18.058594 C 7.128906 17.84375 7.125 17.835938 7.007812 17.824219 C 6.890625 17.808594 6.890625 17.8125 6.890625 18.042969 C 6.890625 18.171875 6.875 18.277344 6.859375 18.277344 C 6.738281 18.28125 6.710938 18.355469 6.800781 18.441406 C 6.867188 18.507812 6.890625 18.515625 6.890625 18.464844 C 6.890625 18.367188 6.96875 18.394531 6.984375 18.496094 C 6.992188 18.550781 6.96875 18.617188 6.933594 18.644531 C 6.875 18.6875 6.875 18.699219 6.933594 18.738281 C 6.976562 18.765625 6.980469 18.78125 6.945312 18.78125 C 6.878906 18.78125 6.871094 18.980469 6.9375 19 C 7.042969 19.035156 7.023438 19.410156 6.910156 19.519531 C 6.675781 19.746094 6.644531 20.253906 6.863281 20.253906 C 6.867188 20.253906 6.867188 20.128906 6.863281 19.980469 L 6.855469 19.707031 L 6.980469 19.707031 C 7.085938 19.707031 7.105469 19.6875 7.105469 19.601562 C 7.105469 19.511719 7.125 19.496094 7.238281 19.496094 C 7.351562 19.496094 7.367188 19.480469 7.367188 19.371094 C 7.367188 19.257812 7.351562 19.242188 7.238281 19.242188 L 7.105469 19.242188 L 7.105469 18.734375 L 7.238281 18.761719 C 7.359375 18.785156 7.367188 18.78125 7.367188 18.660156 C 7.367188 18.542969 7.378906 18.53125 7.496094 18.53125 L 7.625 18.53125 L 7.625 19.039062 L 7.496094 19.011719 C 7.375 18.988281 7.367188 18.992188 7.367188 19.113281 C 7.367188 19.230469 7.378906 19.242188 7.496094 19.242188 C 7.613281 19.242188 7.625 19.257812 7.625 19.371094 C 7.625 19.480469 7.613281 19.496094 7.496094 19.496094 C 7.382812 19.496094 7.367188 19.511719 7.367188 19.621094 C 7.367188 19.730469 7.347656 19.746094 7.257812 19.746094 C 7.160156 19.746094 7.148438 19.761719 7.148438 19.9375 C 7.148438 20.15625 7.203125 20.136719 7.339844 19.882812 C 7.378906 19.808594 7.429688 19.746094 7.453125 19.746094 C 7.527344 19.746094 7.707031 19.394531 7.703125 19.242188 C 7.703125 18.894531 7.859375 18.613281 7.984375 18.734375 C 8.019531 18.769531 8.011719 18.78125 7.9375 18.78125 C 7.84375 18.78125 7.84375 18.792969 7.84375 19.257812 L 7.84375 19.734375 L 7.734375 19.714844 C 7.636719 19.699219 7.625 19.710938 7.625 19.828125 C 7.625 19.945312 7.613281 19.957031 7.496094 19.957031 C 7.378906 19.957031 7.367188 19.972656 7.367188 20.085938 C 7.367188 20.203125 7.355469 20.214844 7.246094 20.203125 C 7.144531 20.191406 7.128906 20.203125 7.128906 20.304688 L 7.128906 20.421875 L 6.636719 20.429688 C 6.234375 20.441406 6.136719 20.429688 6.109375 20.378906 C 6.085938 20.34375 6.070312 20.335938 6.070312 20.355469 C 6.066406 20.542969 6.671875 20.664062 6.996094 20.546875 C 7.089844 20.511719 7.105469 20.515625 7.105469 20.589844 C 7.105469 20.671875 7.074219 20.671875 6.128906 20.671875 L 5.144531 20.671875 L 5.199219 20.421875 L 4.808594 20.421875 C 4.421875 20.421875 4.421875 20.421875 4.421875 20.316406 C 4.421875 20.230469 4.398438 20.210938 4.3125 20.210938 C 4.21875 20.210938 4.203125 20.191406 4.203125 20.085938 C 4.203125 19.972656 4.1875 19.957031 4.074219 19.957031 C 3.957031 19.957031 3.941406 19.972656 3.941406 20.085938 C 3.941406 20.195312 3.929688 20.210938 3.8125 20.210938 C 3.699219 20.210938 3.683594 20.195312 3.683594 20.085938 C 3.683594 19.960938 3.679688 19.957031 3.445312 19.957031 C 3.207031 19.957031 3.207031 19.957031 3.207031 19.832031 C 3.207031 19.707031 3.207031 19.707031 3.445312 19.707031 C 3.679688 19.707031 3.683594 19.707031 3.683594 19.832031 C 3.683594 19.941406 3.699219 19.957031 3.8125 19.957031 C 3.941406 19.957031 3.941406 19.957031 3.941406 19.710938 L 3.941406 19.464844 L 3.8125 19.480469 L 3.679688 19.492188 L 3.691406 19.066406 C 3.703125 18.71875 3.71875 18.636719 3.765625 18.648438 C 3.800781 18.652344 3.839844 18.636719 3.855469 18.613281 C 3.914062 18.523438 3.996094 18.882812 3.957031 19.035156 C 3.910156 19.207031 3.945312 19.410156 4.054688 19.566406 C 4.101562 19.632812 4.140625 19.730469 4.144531 19.789062 C 4.152344 19.941406 4.164062 19.949219 4.203125 19.832031 C 4.234375 19.730469 4.238281 19.734375 4.242188 19.863281 C 4.246094 19.957031 4.273438 20.003906 4.332031 20.019531 C 4.382812 20.035156 4.421875 20.0625 4.421875 20.085938 C 4.421875 20.101562 4.476562 20.160156 4.550781 20.210938 L 4.679688 20.300781 L 4.679688 20.128906 C 4.679688 19.964844 4.671875 19.957031 4.550781 19.957031 C 4.433594 19.957031 4.421875 19.941406 4.421875 19.832031 C 4.421875 19.71875 4.433594 19.707031 4.546875 19.707031 C 4.703125 19.707031 4.753906 19.640625 4.648438 19.574219 C 4.589844 19.542969 4.570312 19.492188 4.585938 19.40625 C 4.59375 19.34375 4.582031 19.230469 4.554688 19.160156 C 4.53125 19.089844 4.515625 19.035156 4.527344 19.035156 C 4.535156 19.035156 4.574219 19.023438 4.609375 19.007812 C 4.667969 18.988281 4.679688 19.023438 4.679688 19.238281 C 4.679688 19.484375 4.683594 19.496094 4.789062 19.496094 C 4.890625 19.496094 4.898438 19.488281 4.898438 19.207031 C 4.898438 19.046875 4.910156 18.832031 4.925781 18.726562 L 4.949219 18.53125 L 4.410156 18.53125 L 4.441406 19.011719 L 4.472656 19.496094 L 4.15625 19.496094 L 4.167969 19.234375 C 4.183594 18.988281 4.1875 18.96875 4.277344 18.980469 C 4.332031 18.984375 4.375 18.972656 4.375 18.949219 C 4.375 18.925781 4.335938 18.90625 4.289062 18.90625 C 4.203125 18.90625 4.183594 18.84375 4.199219 18.625 C 4.207031 18.542969 4.1875 18.53125 4.074219 18.53125 C 3.949219 18.53125 3.9375 18.519531 3.953125 18.414062 C 3.960938 18.316406 3.984375 18.300781 4.085938 18.308594 C 4.1875 18.3125 4.203125 18.296875 4.203125 18.191406 C 4.203125 18.070312 4.207031 18.066406 4.441406 18.066406 L 4.679688 18.066406 L 4.679688 18.277344 C 4.679688 18.4375 4.695312 18.488281 4.746094 18.488281 C 4.78125 18.488281 4.808594 18.449219 4.808594 18.402344 C 4.808594 18.3125 4.996094 18.292969 5.101562 18.375 C 5.136719 18.398438 5.15625 18.398438 5.15625 18.367188 C 5.15625 18.339844 5.199219 18.316406 5.253906 18.3125 L 5.351562 18.308594 L 5.253906 18.289062 C 5.160156 18.273438 5.152344 18.253906 5.164062 18.050781 C 5.175781 17.84375 5.167969 17.835938 5.058594 17.824219 C 4.886719 17.800781 4.886719 17.617188 5.058594 17.597656 C 5.160156 17.585938 5.175781 17.566406 5.164062 17.46875 C 5.15625 17.367188 5.167969 17.351562 5.285156 17.351562 C 5.402344 17.351562 5.417969 17.339844 5.417969 17.230469 C 5.417969 17.078125 5.335938 17.019531 5.265625 17.117188 C 5.234375 17.152344 5.1875 17.183594 5.164062 17.183594 C 5.136719 17.183594 5.113281 17.207031 5.113281 17.230469 C 5.113281 17.257812 5.074219 17.324219 5.027344 17.382812 L 4.941406 17.488281 L 4.941406 17.296875 C 4.941406 17.117188 4.949219 17.101562 5.046875 17.101562 C 5.136719 17.101562 5.15625 17.078125 5.15625 16.992188 C 5.15625 16.839844 5.082031 16.71875 5.003906 16.75 C 4.96875 16.761719 4.941406 16.753906 4.941406 16.726562 C 4.941406 16.703125 4.980469 16.679688 5.027344 16.679688 C 5.074219 16.679688 5.113281 16.65625 5.113281 16.621094 C 5.113281 16.53125 5.453125 16.214844 5.539062 16.226562 C 5.601562 16.238281 5.613281 16.199219 5.625 15.953125 C 5.632812 15.738281 5.621094 15.671875 5.582031 15.675781 C 5.441406 15.691406 5.417969 15.664062 5.417969 15.503906 C 5.417969 15.347656 5.425781 15.335938 5.542969 15.335938 C 5.613281 15.335938 5.679688 15.308594 5.691406 15.273438 C 5.707031 15.238281 5.746094 15.210938 5.777344 15.210938 C 5.875 15.210938 5.890625 15.128906 5.894531 14.550781 L 5.902344 14.011719 L 5.789062 14.019531 C 5.691406 14.027344 5.675781 14.011719 5.675781 13.90625 C 5.675781 13.796875 5.660156 13.78125 5.546875 13.78125 L 5.417969 13.78125 L 5.417969 13.0625 L 5.535156 13.074219 C 5.636719 13.085938 5.65625 13.070312 5.667969 12.972656 C 5.679688 12.863281 5.695312 12.855469 5.917969 12.855469 C 6.152344 12.855469 6.152344 12.855469 6.152344 12.730469 C 6.152344 12.605469 6.15625 12.605469 6.386719 12.605469 C 6.53125 12.605469 6.628906 12.585938 6.640625 12.554688 C 6.671875 12.457031 7.386719 12.425781 7.746094 12.507812 Z M 4.929688 13.0625 C 4.941406 13.527344 4.941406 13.53125 5.050781 13.53125 C 5.15625 13.53125 5.15625 13.535156 5.15625 13.886719 L 5.15625 14.242188 L 5.285156 14.242188 C 5.402344 14.242188 5.417969 14.257812 5.417969 14.371094 C 5.417969 14.480469 5.433594 14.496094 5.546875 14.496094 L 5.675781 14.496094 L 5.675781 15.210938 L 5.386719 15.210938 L 5.40625 14.980469 L 5.425781 14.746094 L 5.289062 14.746094 C 5.15625 14.746094 5.15625 14.746094 5.15625 14.515625 C 5.15625 14.289062 5.15625 14.285156 5.027344 14.285156 L 4.898438 14.285156 L 4.898438 13.929688 C 4.898438 13.574219 4.894531 13.570312 4.789062 13.570312 L 4.679688 13.570312 L 4.679688 12.5625 L 4.800781 12.574219 L 4.917969 12.589844 Z M 7.21875 13.445312 C 7.21875 13.726562 7.199219 13.949219 7.175781 13.949219 C 7.15625 13.949219 7.148438 13.960938 7.164062 13.976562 C 7.179688 13.992188 7.171875 14.03125 7.144531 14.0625 C 7.117188 14.09375 7.109375 14.117188 7.128906 14.117188 C 7.144531 14.117188 7.136719 14.144531 7.109375 14.179688 C 7.078125 14.210938 7.066406 14.261719 7.082031 14.285156 C 7.101562 14.308594 7.082031 14.316406 7.042969 14.300781 C 6.988281 14.28125 6.976562 14.296875 6.992188 14.386719 C 7.003906 14.445312 6.996094 14.496094 6.972656 14.496094 C 6.953125 14.496094 6.949219 14.527344 6.964844 14.566406 C 6.980469 14.601562 6.964844 14.65625 6.929688 14.679688 C 6.84375 14.746094 6.832031 14.808594 6.824219 15.167969 C 6.808594 15.746094 6.75 16.324219 6.703125 16.351562 C 6.675781 16.371094 6.664062 16.394531 6.679688 16.40625 C 6.714844 16.441406 6.601562 16.746094 6.550781 16.734375 C 6.527344 16.730469 6.507812 16.890625 6.5 17.09375 C 6.492188 17.292969 6.484375 17.5 6.484375 17.550781 C 6.480469 17.605469 6.445312 17.660156 6.402344 17.671875 C 6.359375 17.683594 6.335938 17.710938 6.347656 17.730469 C 6.363281 17.753906 6.355469 17.777344 6.335938 17.789062 C 6.316406 17.800781 6.292969 17.921875 6.289062 18.050781 C 6.285156 18.183594 6.269531 18.308594 6.257812 18.324219 C 6.25 18.339844 6.261719 18.363281 6.289062 18.371094 C 6.316406 18.378906 6.34375 18.484375 6.347656 18.609375 C 6.351562 18.800781 6.347656 18.820312 6.296875 18.757812 C 6.246094 18.6875 6.238281 18.691406 6.238281 18.796875 C 6.238281 18.878906 6.214844 18.921875 6.152344 18.9375 C 6.105469 18.949219 6.078125 18.976562 6.089844 18.992188 C 6.097656 19.011719 6.074219 19.050781 6.035156 19.082031 C 5.996094 19.113281 5.976562 19.117188 5.992188 19.089844 C 6.011719 19.0625 6.007812 19.03125 5.988281 19.019531 C 5.953125 18.996094 5.9375 19.089844 5.929688 19.398438 C 5.925781 19.511719 5.949219 19.597656 5.996094 19.644531 C 6.085938 19.730469 6.085938 19.765625 6 19.734375 C 5.929688 19.707031 5.914062 19.769531 5.980469 19.8125 C 6.03125 19.839844 5.910156 19.953125 5.828125 19.957031 C 5.804688 19.957031 5.8125 19.9375 5.851562 19.917969 C 5.898438 19.886719 5.894531 19.878906 5.820312 19.882812 C 5.769531 19.886719 5.734375 19.90625 5.75 19.925781 C 5.757812 19.941406 5.722656 19.953125 5.667969 19.941406 C 5.605469 19.933594 5.570312 19.898438 5.574219 19.859375 C 5.578125 19.820312 5.550781 19.789062 5.511719 19.785156 C 5.460938 19.785156 5.457031 19.773438 5.496094 19.761719 C 5.539062 19.742188 5.539062 19.726562 5.496094 19.671875 C 5.445312 19.617188 5.449219 19.613281 5.503906 19.644531 C 5.558594 19.675781 5.558594 19.671875 5.511719 19.613281 C 5.476562 19.566406 5.472656 19.535156 5.5 19.519531 C 5.527344 19.503906 5.546875 19.472656 5.546875 19.449219 C 5.546875 19.425781 5.523438 19.421875 5.496094 19.4375 C 5.46875 19.453125 5.476562 19.421875 5.519531 19.367188 C 5.558594 19.3125 5.589844 19.234375 5.589844 19.191406 C 5.589844 19.152344 5.613281 19.117188 5.636719 19.117188 C 5.660156 19.117188 5.671875 19.101562 5.660156 19.085938 C 5.652344 19.070312 5.675781 18.988281 5.714844 18.90625 C 5.761719 18.8125 5.785156 18.671875 5.78125 18.496094 C 5.777344 18.355469 5.792969 18.246094 5.8125 18.257812 C 5.832031 18.269531 5.839844 18.226562 5.832031 18.15625 C 5.824219 18.085938 5.839844 18.019531 5.867188 18.011719 C 5.902344 17.996094 5.902344 17.980469 5.863281 17.941406 C 5.816406 17.890625 5.902344 17.664062 5.996094 17.601562 C 6.042969 17.566406 6.066406 16.863281 6.019531 16.714844 C 5.992188 16.625 6 16.597656 6.050781 16.597656 C 6.085938 16.597656 6.101562 16.578125 6.089844 16.558594 C 6.074219 16.535156 6.097656 16.480469 6.140625 16.4375 C 6.183594 16.398438 6.226562 16.296875 6.234375 16.214844 C 6.238281 16.136719 6.265625 16.050781 6.289062 16.03125 C 6.308594 16.011719 6.328125 15.972656 6.328125 15.949219 C 6.328125 15.921875 6.308594 15.929688 6.285156 15.964844 C 6.246094 16.019531 6.242188 16.019531 6.238281 15.957031 C 6.238281 15.921875 6.257812 15.875 6.285156 15.863281 C 6.308594 15.847656 6.328125 15.8125 6.328125 15.785156 C 6.328125 15.757812 6.308594 15.761719 6.285156 15.796875 C 6.257812 15.835938 6.238281 15.839844 6.238281 15.8125 C 6.238281 15.785156 6.261719 15.746094 6.289062 15.734375 C 6.3125 15.714844 6.324219 15.65625 6.3125 15.597656 C 6.300781 15.535156 6.324219 15.464844 6.363281 15.421875 C 6.457031 15.328125 6.601562 15.058594 6.617188 14.941406 C 6.628906 14.871094 6.621094 14.867188 6.585938 14.914062 C 6.554688 14.964844 6.546875 14.941406 6.550781 14.832031 C 6.554688 14.75 6.582031 14.65625 6.605469 14.625 C 6.636719 14.578125 6.636719 14.570312 6.601562 14.59375 C 6.570312 14.613281 6.554688 14.570312 6.566406 14.464844 C 6.582031 14.25 6.578125 14.257812 6.652344 14.183594 C 6.695312 14.144531 6.703125 14.117188 6.671875 14.117188 C 6.644531 14.117188 6.652344 14.089844 6.691406 14.050781 C 6.730469 14.015625 6.761719 13.957031 6.761719 13.925781 C 6.761719 13.894531 6.773438 13.867188 6.792969 13.867188 C 6.839844 13.867188 6.835938 13.691406 6.792969 13.625 C 6.773438 13.597656 6.773438 13.566406 6.796875 13.554688 C 6.816406 13.542969 6.828125 13.441406 6.824219 13.332031 C 6.816406 13.105469 6.839844 13.015625 6.894531 13.046875 C 6.914062 13.0625 6.933594 13.050781 6.933594 13.03125 C 6.933594 13.007812 6.988281 12.980469 7.050781 12.96875 C 7.117188 12.960938 7.183594 12.953125 7.199219 12.949219 C 7.210938 12.941406 7.222656 13.167969 7.21875 13.445312 Z M 3.78125 13.097656 C 3.816406 13.152344 3.742188 13.296875 3.679688 13.300781 C 3.648438 13.304688 3.589844 13.308594 3.554688 13.3125 C 3.339844 13.335938 3.171875 14 3.375 14.027344 C 3.472656 14.039062 3.476562 14.03125 3.460938 13.796875 C 3.445312 13.550781 3.445312 13.550781 3.570312 13.550781 L 3.691406 13.550781 L 3.683594 14.613281 L 3.679688 15.671875 L 3.8125 15.671875 C 3.929688 15.671875 3.941406 15.683594 3.941406 15.796875 C 3.941406 15.910156 3.929688 15.925781 3.8125 15.925781 C 3.703125 15.925781 3.683594 15.90625 3.683594 15.820312 C 3.683594 15.742188 3.65625 15.714844 3.5625 15.707031 C 3.445312 15.691406 3.445312 15.6875 3.460938 15.445312 L 3.476562 15.199219 L 3.339844 15.21875 L 3.207031 15.238281 L 3.207031 13.066406 L 3.484375 13.066406 C 3.640625 13.066406 3.773438 13.082031 3.78125 13.097656 Z M 4.632812 13.730469 C 4.636719 13.757812 4.589844 13.78125 4.527344 13.78125 C 4.40625 13.78125 4.398438 13.757812 4.46875 13.585938 L 4.511719 13.464844 L 4.574219 13.570312 C 4.605469 13.628906 4.632812 13.699219 4.632812 13.730469 Z M 2.9375 14.105469 C 2.925781 14.214844 2.917969 14.125 2.917969 13.90625 C 2.917969 13.6875 2.925781 13.597656 2.9375 13.707031 C 2.945312 13.816406 2.945312 13.996094 2.9375 14.105469 Z M 9.144531 13.820312 C 9.144531 13.839844 9.070312 13.871094 8.980469 13.882812 C 8.851562 13.90625 8.792969 13.945312 8.730469 14.042969 C 8.644531 14.191406 8.589844 14.136719 8.582031 13.898438 C 8.578125 13.78125 8.582031 13.78125 8.863281 13.78125 C 9.019531 13.78125 9.144531 13.796875 9.144531 13.820312 Z M 4.78125 14.074219 C 4.792969 14.179688 4.804688 14.277344 4.808594 14.292969 C 4.808594 14.3125 4.847656 14.359375 4.890625 14.398438 C 4.996094 14.492188 5.050781 14.6875 4.988281 14.726562 C 4.957031 14.742188 4.941406 14.707031 4.941406 14.625 C 4.941406 14.511719 4.925781 14.496094 4.808594 14.496094 L 4.679688 14.496094 L 4.679688 14.207031 C 4.679688 14.050781 4.691406 13.910156 4.707031 13.894531 C 4.75 13.851562 4.753906 13.867188 4.78125 14.074219 Z M 3.296875 15.53125 C 3.335938 15.730469 3.65625 16.09375 3.792969 16.09375 C 3.867188 16.09375 3.917969 16.308594 3.855469 16.347656 C 3.820312 16.367188 3.800781 16.507812 3.800781 16.738281 C 3.800781 17.023438 3.789062 17.101562 3.738281 17.101562 C 3.691406 17.101562 3.679688 17.019531 3.691406 16.640625 L 3.703125 16.179688 L 3.574219 16.167969 C 3.460938 16.15625 3.445312 16.140625 3.457031 16.039062 C 3.472656 15.9375 3.460938 15.925781 3.339844 15.925781 L 3.207031 15.925781 L 3.207031 15.601562 C 3.207031 15.25 3.238281 15.222656 3.296875 15.53125 Z M 8 15.367188 C 8.023438 15.382812 8.042969 15.46875 8.042969 15.558594 C 8.039062 15.761719 7.859375 15.898438 7.734375 15.796875 C 7.664062 15.742188 7.664062 15.734375 7.761719 15.710938 C 7.839844 15.695312 7.863281 15.660156 7.871094 15.566406 C 7.875 15.324219 7.894531 15.296875 8 15.367188 Z M 8.335938 16.015625 C 8.367188 16.140625 8.339844 16.167969 8.210938 16.144531 C 8.132812 16.128906 8.101562 16.097656 8.101562 16.023438 C 8.101562 15.886719 8.296875 15.878906 8.335938 16.015625 Z M 9.425781 15.964844 C 9.410156 15.988281 9.339844 16.007812 9.269531 16.007812 C 9.105469 16.007812 9.003906 16.109375 8.917969 16.367188 L 8.84375 16.574219 L 8.84375 16.25 L 8.839844 15.925781 L 9.144531 15.925781 C 9.339844 15.925781 9.441406 15.9375 9.425781 15.964844 Z M 9.335938 16.207031 C 9.332031 16.238281 9.328125 16.34375 9.324219 16.449219 C 9.316406 16.621094 9.304688 16.636719 9.210938 16.636719 C 9.128906 16.636719 9.101562 16.664062 9.089844 16.753906 C 9.082031 16.84375 9.050781 16.871094 8.960938 16.882812 C 8.867188 16.894531 8.839844 16.917969 8.839844 16.996094 C 8.839844 17.074219 8.8125 17.097656 8.722656 17.109375 C 8.609375 17.121094 8.601562 17.132812 8.589844 17.363281 C 8.574219 17.589844 8.570312 17.605469 8.46875 17.605469 C 8.386719 17.605469 8.363281 17.625 8.363281 17.710938 C 8.363281 17.796875 8.34375 17.816406 8.234375 17.816406 C 8.117188 17.816406 8.101562 17.828125 8.101562 17.941406 C 8.101562 18.050781 8.089844 18.066406 7.972656 18.066406 C 7.859375 18.066406 7.84375 18.050781 7.84375 17.941406 C 7.84375 17.828125 7.859375 17.816406 7.972656 17.816406 C 8.089844 17.816406 8.101562 17.800781 8.101562 17.6875 C 8.101562 17.582031 8.121094 17.5625 8.210938 17.5625 C 8.3125 17.5625 8.320312 17.550781 8.320312 17.332031 C 8.320312 17.101562 8.320312 17.101562 8.449219 17.101562 C 8.566406 17.101562 8.578125 17.085938 8.578125 16.976562 C 8.578125 16.863281 8.59375 16.847656 8.710938 16.847656 C 8.832031 16.847656 8.84375 16.835938 8.832031 16.734375 C 8.820312 16.628906 8.832031 16.621094 8.9375 16.628906 C 9.058594 16.644531 9.058594 16.644531 9.058594 16.386719 L 9.058594 16.128906 L 9.199219 16.144531 C 9.277344 16.148438 9.335938 16.179688 9.335938 16.207031 Z M 8.101562 16.28125 C 8.101562 16.375 8.082031 16.386719 7.953125 16.386719 C 7.855469 16.386719 7.804688 16.367188 7.8125 16.335938 C 7.851562 16.15625 8.101562 16.109375 8.101562 16.28125 Z M 4.203125 16.636719 C 4.203125 16.882812 4.207031 16.882812 4.324219 16.878906 C 4.417969 16.871094 4.445312 16.890625 4.457031 16.96875 C 4.476562 17.117188 4.425781 17.140625 4.160156 17.117188 L 3.921875 17.09375 L 3.933594 16.738281 L 3.949219 16.386719 L 4.074219 16.386719 C 4.203125 16.386719 4.203125 16.386719 4.203125 16.636719 Z M 7.84375 16.742188 C 7.84375 16.828125 7.820312 16.847656 7.734375 16.847656 C 7.648438 16.847656 7.625 16.828125 7.625 16.742188 C 7.625 16.660156 7.648438 16.636719 7.734375 16.636719 C 7.820312 16.636719 7.84375 16.660156 7.84375 16.742188 Z M 8.652344 16.71875 C 8.582031 16.761719 8.492188 16.851562 8.445312 16.917969 L 8.363281 17.039062 L 8.363281 16.933594 C 8.363281 16.875 8.351562 16.785156 8.335938 16.734375 C 8.3125 16.644531 8.320312 16.636719 8.542969 16.636719 L 8.773438 16.636719 Z M 4.679688 17.164062 L 4.679688 17.5625 L 4.550781 17.5625 C 4.433594 17.5625 4.421875 17.578125 4.421875 17.6875 C 4.421875 17.800781 4.433594 17.816406 4.550781 17.816406 C 4.660156 17.816406 4.679688 17.796875 4.679688 17.710938 C 4.679688 17.625 4.703125 17.605469 4.785156 17.605469 C 4.886719 17.605469 4.890625 17.613281 4.847656 17.742188 C 4.824219 17.816406 4.792969 17.90625 4.785156 17.9375 C 4.769531 17.980469 4.75 17.984375 4.71875 17.953125 C 4.667969 17.902344 4.546875 17.929688 4.496094 17.996094 C 4.484375 18.023438 4.457031 17.992188 4.441406 17.929688 C 4.414062 17.839844 4.386719 17.816406 4.285156 17.816406 C 4.171875 17.816406 4.160156 17.800781 4.160156 17.671875 C 4.160156 17.398438 4.207031 17.269531 4.308594 17.269531 C 4.441406 17.269531 4.554688 17.117188 4.5625 16.929688 C 4.578125 16.550781 4.679688 16.757812 4.679688 17.164062 Z M 8.128906 17.167969 C 8.113281 17.203125 8.101562 17.261719 8.101562 17.292969 C 8.101562 17.375 7.890625 17.371094 7.859375 17.289062 C 7.816406 17.175781 7.878906 17.101562 8.019531 17.101562 C 8.128906 17.101562 8.152344 17.117188 8.128906 17.167969 Z M 3.332031 18.683594 C 3.40625 18.703125 3.417969 18.71875 3.375 18.742188 C 3.296875 18.792969 3.085938 18.792969 3.058594 18.742188 C 3.015625 18.675781 3.164062 18.640625 3.332031 18.683594 Z M 3.621094 19.070312 C 3.613281 19.128906 3.601562 19.214844 3.601562 19.257812 C 3.597656 19.296875 3.578125 19.320312 3.554688 19.308594 C 3.53125 19.292969 3.511719 19.300781 3.511719 19.324219 C 3.511719 19.347656 3.4375 19.40625 3.347656 19.449219 C 3.257812 19.492188 3.160156 19.570312 3.128906 19.617188 C 3.058594 19.738281 2.988281 19.730469 2.988281 19.601562 C 2.988281 19.523438 2.964844 19.492188 2.902344 19.488281 C 2.855469 19.484375 2.792969 19.480469 2.761719 19.480469 C 2.6875 19.472656 2.5625 19.210938 2.589844 19.113281 C 2.621094 18.996094 2.6875 19.015625 2.6875 19.136719 C 2.6875 19.242188 2.6875 19.242188 3.078125 19.242188 L 3.464844 19.242188 L 3.46875 19.003906 L 3.46875 18.761719 L 3.554688 18.863281 C 3.609375 18.925781 3.632812 19.003906 3.621094 19.070312 Z M 2.960938 18.90625 C 2.980469 18.980469 2.960938 18.992188 2.84375 18.992188 L 2.707031 18.988281 L 2.816406 18.90625 C 2.878906 18.863281 2.925781 18.824219 2.929688 18.824219 C 2.933594 18.824219 2.945312 18.863281 2.960938 18.90625 Z M 9.578125 20.425781 L 9.578125 20.671875 L 8.839844 20.671875 L 8.839844 20.546875 C 8.839844 20.433594 8.855469 20.421875 8.972656 20.421875 C 9.085938 20.421875 9.105469 20.40625 9.097656 20.324219 C 9.09375 20.273438 9.09375 20.21875 9.09375 20.207031 C 9.097656 20.191406 9.207031 20.179688 9.339844 20.179688 L 9.578125 20.179688 Z M 3.207031 21.03125 L 3.207031 21.386719 L 2.699219 21.386719 L 2.710938 21.144531 C 2.726562 20.914062 2.730469 20.902344 2.835938 20.910156 C 2.929688 20.917969 2.945312 20.902344 2.945312 20.796875 C 2.945312 20.6875 2.960938 20.671875 3.078125 20.671875 L 3.207031 20.671875 Z M 8.789062 20.722656 C 8.875 20.808594 8.847656 20.886719 8.742188 20.875 C 8.679688 20.867188 8.640625 20.828125 8.632812 20.765625 C 8.617188 20.664062 8.703125 20.636719 8.789062 20.722656 Z M 8.585938 21.203125 C 8.589844 21.375 8.59375 21.535156 8.597656 21.566406 C 8.597656 21.601562 8.519531 21.621094 8.351562 21.628906 L 8.101562 21.644531 L 8.101562 21.515625 C 8.101562 21.402344 8.089844 21.386719 7.972656 21.386719 C 7.84375 21.386719 7.84375 21.386719 7.84375 21.136719 L 7.84375 20.894531 L 8.578125 20.894531 Z M 11.996094 21.453125 L 12.011719 21.574219 L 11.914062 21.484375 C 11.863281 21.433594 11.835938 21.375 11.847656 21.347656 C 11.902344 21.265625 11.980469 21.324219 11.996094 21.453125 Z M 3.464844 21.511719 C 3.464844 21.625 3.453125 21.636719 3.335938 21.636719 C 3.203125 21.636719 3.179688 21.589844 3.234375 21.453125 C 3.285156 21.324219 3.464844 21.371094 3.464844 21.511719 Z M 4.679688 21.511719 C 4.679688 21.625 4.664062 21.636719 4.550781 21.636719 C 4.421875 21.636719 4.421875 21.640625 4.421875 21.871094 L 4.421875 22.101562 L 4.183594 22.101562 C 3.945312 22.101562 3.941406 22.101562 3.941406 22.230469 L 3.941406 22.355469 L 3.699219 22.34375 L 3.453125 22.332031 L 3.445312 21.847656 L 3.695312 21.847656 C 3.941406 21.847656 3.941406 21.847656 3.941406 21.71875 C 3.941406 21.605469 3.957031 21.59375 4.0625 21.605469 C 4.167969 21.617188 4.183594 21.601562 4.179688 21.503906 C 4.175781 21.386719 4.183594 21.386719 4.429688 21.386719 C 4.679688 21.386719 4.679688 21.386719 4.679688 21.511719 Z M 9.886719 21.605469 C 9.816406 21.675781 9.824219 21.742188 9.898438 21.683594 C 9.96875 21.625 9.972656 21.78125 9.902344 21.886719 C 9.878906 21.925781 9.882812 21.9375 9.914062 21.917969 C 9.964844 21.886719 10.078125 22.046875 10.035156 22.089844 C 9.988281 22.132812 9.878906 22.058594 9.828125 21.945312 C 9.753906 21.773438 9.757812 21.621094 9.835938 21.589844 C 9.933594 21.546875 9.945312 21.550781 9.886719 21.605469 Z M 6.5625 21.957031 C 6.601562 21.972656 6.628906 22.011719 6.628906 22.046875 C 6.628906 22.132812 6.484375 22.097656 6.464844 22.007812 C 6.449219 21.925781 6.457031 21.921875 6.5625 21.957031 Z M 6.5625 21.957031 "/>
<path style=" stroke:none;fill-rule:nonzero;fill:rgb(0%,0%,0%);fill-opacity:1;" d="M 5.15625 16.738281 C 5.15625 16.835938 5.296875 16.914062 5.378906 16.867188 C 5.484375 16.804688 5.414062 16.636719 5.285156 16.636719 C 5.179688 16.636719 5.15625 16.65625 5.15625 16.738281 Z M 5.15625 16.738281 "/>
<path style=" stroke:none;fill-rule:nonzero;fill:rgb(0%,0%,0%);fill-opacity:1;" d="M 4.289062 18.320312 C 4.289062 18.476562 4.304688 18.53125 4.34375 18.519531 C 4.375 18.507812 4.398438 18.429688 4.398438 18.320312 C 4.398438 18.210938 4.375 18.128906 4.34375 18.121094 C 4.304688 18.105469 4.289062 18.164062 4.289062 18.320312 Z M 4.289062 18.320312 "/>
<path style=" stroke:none;fill-rule:nonzero;fill:rgb(0%,0%,0%);fill-opacity:1;" d="M 6.769531 19.09375 C 6.734375 19.171875 6.734375 19.203125 6.773438 19.214844 C 6.800781 19.226562 6.78125 19.238281 6.726562 19.238281 C 6.554688 19.246094 6.589844 19.496094 6.761719 19.496094 C 6.886719 19.496094 6.890625 19.488281 6.890625 19.296875 C 6.886719 19.039062 6.835938 18.953125 6.769531 19.09375 Z M 6.769531 19.09375 "/>
<path style=" stroke:none;fill-rule:nonzero;fill:rgb(0%,0%,0%);fill-opacity:1;" d="M 4.6875 19.796875 C 4.695312 19.851562 4.722656 19.890625 4.746094 19.882812 C 4.808594 19.871094 4.796875 19.738281 4.730469 19.714844 C 4.691406 19.703125 4.679688 19.726562 4.6875 19.796875 Z M 4.6875 19.796875 "/>
<path style=" stroke:none;fill-rule:nonzero;fill:rgb(0%,0%,0%);fill-opacity:1;" d="M 4.898438 10.335938 C 4.898438 10.496094 5.128906 10.527344 5.171875 10.371094 C 5.203125 10.246094 5.171875 10.210938 5.023438 10.210938 C 4.910156 10.210938 4.898438 10.226562 4.898438 10.335938 Z M 4.898438 10.335938 "/>
<path style=" stroke:none;fill-rule:nonzero;fill:rgb(0%,0%,0%);fill-opacity:1;" d="M 8.578125 19.371094 C 8.578125 19.480469 8.59375 19.496094 8.710938 19.496094 C 8.824219 19.496094 8.839844 19.480469 8.839844 19.371094 C 8.839844 19.257812 8.824219 19.242188 8.710938 19.242188 C 8.59375 19.242188 8.578125 19.257812 8.578125 19.371094 Z M 8.578125 19.371094 "/>
<path style=" stroke:none;fill-rule:nonzero;fill:rgb(0%,0%,0%);fill-opacity:1;" d="M 9.324219 19.359375 C 9.335938 19.453125 9.359375 19.476562 9.445312 19.476562 C 9.546875 19.476562 9.554688 19.492188 9.566406 19.714844 C 9.582031 19.953125 9.582031 19.957031 9.707031 19.957031 L 9.835938 19.957031 L 9.835938 19.242188 L 9.574219 19.242188 C 9.3125 19.242188 9.308594 19.242188 9.324219 19.359375 Z M 9.324219 19.359375 "/>
<path style=" stroke:none;fill-rule:nonzero;fill:rgb(0%,0%,0%);fill-opacity:1;" d="M 9.101562 19.578125 C 9.101562 19.625 9.101562 19.675781 9.101562 19.691406 C 9.097656 19.707031 9.148438 19.726562 9.207031 19.730469 C 9.300781 19.742188 9.316406 19.726562 9.316406 19.621094 C 9.316406 19.515625 9.300781 19.496094 9.207031 19.496094 C 9.128906 19.496094 9.101562 19.519531 9.101562 19.578125 Z M 9.101562 19.578125 "/>
<path style=" stroke:none;fill-rule:nonzero;fill:rgb(0%,0%,0%);fill-opacity:1;" d="M 9.820312 20.023438 C 9.765625 20.160156 9.792969 20.210938 9.921875 20.210938 C 10.039062 20.210938 10.054688 20.195312 10.054688 20.085938 C 10.054688 19.941406 9.871094 19.894531 9.820312 20.023438 Z M 9.820312 20.023438 "/>
<path style=" stroke:none;fill-rule:nonzero;fill:rgb(0%,0%,0%);fill-opacity:1;" d="M 10.054688 20.546875 C 10.054688 20.660156 10.039062 20.671875 9.921875 20.671875 C 9.800781 20.671875 9.789062 20.683594 9.800781 20.789062 C 9.824219 20.96875 10.054688 20.984375 10.054688 20.800781 C 10.054688 20.6875 10.066406 20.671875 10.183594 20.671875 C 10.296875 20.671875 10.3125 20.65625 10.3125 20.546875 C 10.3125 20.433594 10.296875 20.421875 10.183594 20.421875 C 10.070312 20.421875 10.054688 20.433594 10.054688 20.546875 Z M 10.054688 20.546875 "/>
<path style=" stroke:none;fill-rule:nonzero;fill:rgb(0%,0%,0%);fill-opacity:1;" d="M 7.105469 22.207031 C 7.105469 22.308594 7.117188 22.3125 7.367188 22.3125 L 7.625 22.3125 L 7.625 22.5625 C 7.625 22.816406 7.625 22.816406 7.496094 22.816406 C 7.367188 22.816406 7.367188 22.816406 7.367188 23.046875 C 7.367188 23.273438 7.363281 23.277344 7.238281 23.277344 C 7.121094 23.277344 7.105469 23.292969 7.105469 23.402344 C 7.105469 23.515625 7.121094 23.53125 7.238281 23.53125 C 7.351562 23.53125 7.367188 23.515625 7.367188 23.402344 C 7.367188 23.292969 7.382812 23.277344 7.496094 23.277344 C 7.625 23.277344 7.625 23.273438 7.625 23.046875 C 7.625 22.828125 7.632812 22.816406 7.734375 22.816406 C 7.820312 22.816406 7.84375 22.835938 7.84375 22.921875 C 7.84375 23.023438 7.847656 23.023438 8.210938 23.023438 C 8.574219 23.023438 8.578125 23.023438 8.578125 22.921875 C 8.578125 22.816406 8.574219 22.816406 8.210938 22.816406 L 7.84375 22.816406 L 7.84375 22.101562 L 7.476562 22.101562 C 7.109375 22.101562 7.105469 22.101562 7.105469 22.207031 Z M 7.105469 22.207031 "/>
<path style=" stroke:none;fill-rule:nonzero;fill:rgb(0%,0%,0%);fill-opacity:1;" d="M 5.894531 22.585938 C 5.894531 22.800781 5.886719 22.816406 5.789062 22.816406 C 5.714844 22.816406 5.679688 22.84375 5.664062 22.921875 C 5.640625 23.050781 5.628906 23.046875 5.910156 23.03125 C 6.148438 23.015625 6.152344 23.015625 6.152344 22.894531 C 6.152344 22.785156 6.164062 22.773438 6.261719 22.796875 C 6.367188 22.824219 6.371094 22.820312 6.371094 22.589844 L 6.371094 22.351562 L 5.894531 22.351562 Z M 5.894531 22.585938 "/>
</g>
</svg>
